M48
; DRILL file {KiCad 9.0.2-rc1-202504292220~4c561b3193~ubuntu24.04.1} date 2025-05-13T23:41:38-0300
; FORMAT={-:-/ absolute / metric / decimal}
; #@! TF.CreationDate,2025-05-13T23:41:38-03:00
; #@! TF.GenerationSoftware,Kicad,Pcbnew,9.0.2-rc1-202504292220~4c561b3193~ubuntu24.04.1
; #@! TF.FileFunction,MixedPlating,1,4
FMAT,2
METRIC
; #@! TA.AperFunction,Plated,PTH,ComponentDrill
T1C0.200
; #@! TA.AperFunction,Plated,PTH,ViaDrill
T2C0.300
; #@! TA.AperFunction,Plated,PTH,ComponentDrill
T3C0.500
; #@! TA.AperFunction,Plated,PTH,ComponentDrill
T4C0.600
; #@! TA.AperFunction,Plated,PTH,ComponentDrill
T5C0.950
; #@! TA.AperFunction,Plated,PTH,ComponentDrill
T6C1.400
; #@! TA.AperFunction,Plated,PTH,ComponentDrill
T7C1.500
; #@! TA.AperFunction,NonPlated,NPTH,ComponentDrill
T8C0.650
; #@! TA.AperFunction,NonPlated,NPTH,ComponentDrill
T9C2.200
%
G90
G05
T1
X60.85Y-51.6
X61.95Y-51.6
T2
X47.93Y-53.48
X48.19Y-64.78
X49.03Y-51.92
X49.575Y-69.405
X49.89Y-48.51
X51.391Y-65.513
X52.28Y-53.388
X53.64Y-75.67
X53.98Y-73.12
X54.26Y-66.248
X54.3Y-55.8
X54.325Y-56.65
X54.45Y-62.825
X54.475Y-61.425
X55.84Y-46.35
X57.482Y-72.567
X58.11Y-60.76
X59.825Y-58.8
X60.725Y-54.475
X60.999Y-60.646
X61.23Y-46.55
X61.8Y-58.8
X62.24Y-67.29
X62.51Y-54.43
X62.96Y-49.54
X63.782Y-70.608
X65.075Y-51.675
X65.2Y-52.625
X66.6Y-56.55
X67.01Y-57.975
X67.44Y-61.195
X67.45Y-64.31
X67.46Y-74.09
X67.93Y-41.29
X68.07Y-43.46
X68.07Y-46.67
X68.27Y-68.71
X68.31Y-71.26
X69.22Y-52.415
X70.78Y-60.55
X70.83Y-52.58
X73.15Y-44.64
X78.19Y-42.13
X78.54Y-63.97
X78.67Y-55.77
X79.31Y-72.72
X80.53Y-51.34
X80.57Y-49.83
X80.59Y-48.39
X81.9Y-52.48
X81.99Y-46.93
X82.78Y-64.47
X82.89Y-67.33
X83.42Y-52.58
X83.59Y-47.01
X84.84Y-52.61
X84.92Y-47.08
X85.44Y-62.03
X85.805Y-70.745
X86.42Y-48.64
X86.44Y-49.87
X86.44Y-51.4
X86.76Y-61.96
X89.42Y-74.16
X89.93Y-71.39
X90.2Y-68.85
X91.53Y-42.18
X92.08Y-67.91
X96.18Y-60.74
X97.95Y-41.2
X99.6Y-68.74
X107.52Y-64.25
X107.56Y-62.174
X109.72Y-72.44
X111.95Y-49.56
X112.85Y-41.32
X114.53Y-76.88
X115.94Y-55.09
X116.1Y-53.72
X116.33Y-46.47
X119.31Y-51.3
X120.2Y-48.3
X122.16Y-67.86
X122.3Y-62.34
T3
X118.9Y-59.1
X119.9Y-59.1
X122.65Y-54.04
X122.65Y-55.04
T5
X58.05Y-77.067
X60.55Y-77.067
X63.05Y-77.067
X65.55Y-77.067
X68.05Y-77.067
X70.55Y-77.067
X79.5Y-77.067
X82.0Y-77.067
X84.5Y-77.067
X87.0Y-77.067
X89.5Y-77.067
X92.0Y-77.067
T6
X102.76Y-77.422
X107.84Y-77.422
T7
X126.525Y-45.075
X126.525Y-49.075
X126.525Y-53.075
X126.525Y-57.075
X126.525Y-61.075
X126.525Y-65.075
X126.525Y-69.075
X126.525Y-73.075
X129.525Y-45.075
X129.525Y-49.075
X129.525Y-53.075
X129.525Y-57.075
X129.525Y-61.075
X129.525Y-65.075
X129.525Y-69.075
X129.525Y-73.075
T8
X51.605Y-56.15
X51.605Y-61.93
T9
X50.0Y-42.0
X50.0Y-76.5
X120.0Y-42.0
X120.0Y-76.5
T4
G00X48.325Y-54.72
M15
G01X47.525Y-54.72
M16
G05
G00X48.325Y-63.36
M15
G01X47.525Y-63.36
M16
G05
G00X52.675Y-54.72
M15
G01X51.575Y-54.72
M16
G05
G00X52.675Y-63.36
M15
G01X51.575Y-63.36
M16
G05
M30
