%TF.GenerationSoftware,KiCad,Pcbnew,9.0.2-rc1-202504292220~4c561b3193~ubuntu24.04.1*%
%TF.CreationDate,2025-05-13T23:41:50-03:00*%
%TF.ProjectId,hardware,68617264-7761-4726-952e-6b696361645f,rev?*%
%TF.SameCoordinates,Original*%
%TF.FileFunction,Paste,Top*%
%TF.FilePolarity,Positive*%
%FSLAX46Y46*%
G04 Gerber Fmt 4.6, Leading zero omitted, Abs format (unit mm)*
G04 Created by KiCad (PCBNEW 9.0.2-rc1-202504292220~4c561b3193~ubuntu24.04.1) date 2025-05-13 23:41:50*
%MOMM*%
%LPD*%
G01*
G04 APERTURE LIST*
G04 Aperture macros list*
%AMRoundRect*
0 Rectangle with rounded corners*
0 $1 Rounding radius*
0 $2 $3 $4 $5 $6 $7 $8 $9 X,Y pos of 4 corners*
0 Add a 4 corners polygon primitive as box body*
4,1,4,$2,$3,$4,$5,$6,$7,$8,$9,$2,$3,0*
0 Add four circle primitives for the rounded corners*
1,1,$1+$1,$2,$3*
1,1,$1+$1,$4,$5*
1,1,$1+$1,$6,$7*
1,1,$1+$1,$8,$9*
0 Add four rect primitives between the rounded corners*
20,1,$1+$1,$2,$3,$4,$5,0*
20,1,$1+$1,$4,$5,$6,$7,0*
20,1,$1+$1,$6,$7,$8,$9,0*
20,1,$1+$1,$8,$9,$2,$3,0*%
G04 Aperture macros list end*
%ADD10R,1.525000X0.650000*%
%ADD11R,2.400000X3.100000*%
%ADD12RoundRect,0.135000X-0.135000X-0.185000X0.135000X-0.185000X0.135000X0.185000X-0.135000X0.185000X0*%
%ADD13RoundRect,0.140000X-0.170000X0.140000X-0.170000X-0.140000X0.170000X-0.140000X0.170000X0.140000X0*%
%ADD14RoundRect,0.250000X0.550000X-0.850000X0.550000X0.850000X-0.550000X0.850000X-0.550000X-0.850000X0*%
%ADD15RoundRect,0.135000X0.135000X0.185000X-0.135000X0.185000X-0.135000X-0.185000X0.135000X-0.185000X0*%
%ADD16RoundRect,0.250000X0.450000X-0.350000X0.450000X0.350000X-0.450000X0.350000X-0.450000X-0.350000X0*%
%ADD17RoundRect,0.150000X0.875000X0.150000X-0.875000X0.150000X-0.875000X-0.150000X0.875000X-0.150000X0*%
%ADD18RoundRect,0.250000X-0.475000X0.337500X-0.475000X-0.337500X0.475000X-0.337500X0.475000X0.337500X0*%
%ADD19RoundRect,0.250000X0.475000X-0.337500X0.475000X0.337500X-0.475000X0.337500X-0.475000X-0.337500X0*%
%ADD20RoundRect,0.250000X-0.325000X-0.450000X0.325000X-0.450000X0.325000X0.450000X-0.325000X0.450000X0*%
%ADD21RoundRect,0.135000X-0.185000X0.135000X-0.185000X-0.135000X0.185000X-0.135000X0.185000X0.135000X0*%
%ADD22RoundRect,0.172500X-0.172500X0.262500X-0.172500X-0.262500X0.172500X-0.262500X0.172500X0.262500X0*%
%ADD23RoundRect,0.093750X-0.106250X0.093750X-0.106250X-0.093750X0.106250X-0.093750X0.106250X0.093750X0*%
%ADD24RoundRect,0.250000X-0.337500X-0.475000X0.337500X-0.475000X0.337500X0.475000X-0.337500X0.475000X0*%
%ADD25RoundRect,0.140000X-0.140000X-0.170000X0.140000X-0.170000X0.140000X0.170000X-0.140000X0.170000X0*%
%ADD26RoundRect,0.250000X0.450000X-0.325000X0.450000X0.325000X-0.450000X0.325000X-0.450000X-0.325000X0*%
%ADD27R,0.900000X1.700000*%
%ADD28RoundRect,0.250000X-0.350000X-0.450000X0.350000X-0.450000X0.350000X0.450000X-0.350000X0.450000X0*%
%ADD29R,1.240000X0.600000*%
%ADD30R,1.240000X0.300000*%
%ADD31RoundRect,0.250000X-0.450000X0.350000X-0.450000X-0.350000X0.450000X-0.350000X0.450000X0.350000X0*%
%ADD32R,1.500000X0.900000*%
%ADD33R,0.900000X1.500000*%
%ADD34R,0.900000X0.900000*%
%ADD35RoundRect,0.140000X0.140000X0.170000X-0.140000X0.170000X-0.140000X-0.170000X0.140000X-0.170000X0*%
%ADD36RoundRect,0.093750X-0.156250X-0.093750X0.156250X-0.093750X0.156250X0.093750X-0.156250X0.093750X0*%
%ADD37RoundRect,0.075000X-0.250000X-0.075000X0.250000X-0.075000X0.250000X0.075000X-0.250000X0.075000X0*%
%ADD38RoundRect,0.150000X-0.825000X-0.150000X0.825000X-0.150000X0.825000X0.150000X-0.825000X0.150000X0*%
%ADD39R,4.500000X2.000000*%
%TA.AperFunction,Profile*%
%ADD40C,0.050000*%
%TD*%
G04 APERTURE END LIST*
D10*
%TO.C,MD2*%
X61070500Y-68702500D03*
X61070500Y-69972500D03*
X61070500Y-71242500D03*
X61070500Y-72512500D03*
X66494500Y-72512500D03*
X66494500Y-71242500D03*
X66494500Y-69972500D03*
X66494500Y-68702500D03*
D11*
X63782500Y-70607500D03*
%TD*%
D10*
%TO.C,MD1*%
X83088000Y-68845000D03*
X83088000Y-70115000D03*
X83088000Y-71385000D03*
X83088000Y-72655000D03*
X88512000Y-72655000D03*
X88512000Y-71385000D03*
X88512000Y-70115000D03*
X88512000Y-68845000D03*
D11*
X85800000Y-70750000D03*
%TD*%
D12*
%TO.C,R16*%
X59432500Y-72517500D03*
X58412500Y-72517500D03*
%TD*%
D13*
%TO.C,C16*%
X90420000Y-72680000D03*
X90420000Y-73640000D03*
%TD*%
D12*
%TO.C,R9*%
X80350000Y-72640000D03*
X81370000Y-72640000D03*
%TD*%
D14*
%TO.C,C17*%
X96920000Y-71740000D03*
X96920000Y-68740000D03*
%TD*%
%TO.C,C15*%
X73930000Y-72820000D03*
X73930000Y-69820000D03*
%TD*%
D13*
%TO.C,C13*%
X68370000Y-72640000D03*
X68370000Y-73600000D03*
%TD*%
D15*
%TO.C,R4*%
X62435000Y-48425000D03*
X61415000Y-48425000D03*
%TD*%
D16*
%TO.C,R2*%
X55800000Y-57800000D03*
X55800000Y-55800000D03*
%TD*%
D17*
%TO.C,U2*%
X110050000Y-59980000D03*
X110050000Y-58710000D03*
X110050000Y-57440000D03*
X110050000Y-56170000D03*
X110050000Y-54900000D03*
X110050000Y-53630000D03*
X110050000Y-52360000D03*
X110050000Y-51090000D03*
X110050000Y-49820000D03*
X100750000Y-49820000D03*
X100750000Y-51090000D03*
X100750000Y-52360000D03*
X100750000Y-53630000D03*
X100750000Y-54900000D03*
X100750000Y-56170000D03*
X100750000Y-57440000D03*
X100750000Y-58710000D03*
X100750000Y-59980000D03*
%TD*%
D18*
%TO.C,C11*%
X105600000Y-62162500D03*
X105600000Y-64237500D03*
%TD*%
D19*
%TO.C,C12*%
X54250000Y-69547500D03*
X54250000Y-67472500D03*
%TD*%
%TO.C,C3*%
X69650000Y-43387500D03*
X69650000Y-41312500D03*
%TD*%
%TO.C,C2*%
X73150000Y-43387500D03*
X73150000Y-41312500D03*
%TD*%
D15*
%TO.C,R15*%
X69540000Y-64620000D03*
X68520000Y-64620000D03*
%TD*%
D20*
%TO.C,D4*%
X74107500Y-66350000D03*
X76157500Y-66350000D03*
%TD*%
D15*
%TO.C,R13*%
X87060000Y-64460000D03*
X86040000Y-64460000D03*
%TD*%
D21*
%TO.C,R7*%
X69120000Y-50455000D03*
X69120000Y-51475000D03*
%TD*%
D22*
%TO.C,U4*%
X61800000Y-51600000D03*
X61000000Y-51600000D03*
D23*
X62050000Y-50712500D03*
X61400000Y-50712500D03*
X60750000Y-50712500D03*
X60750000Y-52487500D03*
X61400000Y-52487500D03*
X62050000Y-52487500D03*
%TD*%
D24*
%TO.C,C7*%
X99462500Y-41250000D03*
X101537500Y-41250000D03*
%TD*%
D13*
%TO.C,C6*%
X64237500Y-51660000D03*
X64237500Y-52620000D03*
%TD*%
D25*
%TO.C,C5*%
X60720000Y-53600000D03*
X61680000Y-53600000D03*
%TD*%
D26*
%TO.C,D1*%
X67220000Y-52550000D03*
X67220000Y-50500000D03*
%TD*%
D20*
%TO.C,D2*%
X92067500Y-66220000D03*
X94117500Y-66220000D03*
%TD*%
D27*
%TO.C,Reset*%
X48300000Y-48500000D03*
X51700000Y-48500000D03*
%TD*%
D18*
%TO.C,C10*%
X100600000Y-62162500D03*
X100600000Y-64237500D03*
%TD*%
%TO.C,C4*%
X71500000Y-48812500D03*
X71500000Y-50887500D03*
%TD*%
D24*
%TO.C,C8*%
X109262500Y-41200000D03*
X111337500Y-41200000D03*
%TD*%
D28*
%TO.C,R1*%
X69500000Y-46600000D03*
X71500000Y-46600000D03*
%TD*%
D29*
%TO.C,J1*%
X52725000Y-55840000D03*
X52725000Y-56640000D03*
D30*
X52725000Y-57790000D03*
X52725000Y-58790000D03*
X52725000Y-59290000D03*
X52725000Y-60290000D03*
D29*
X52725000Y-61440000D03*
X52725000Y-62240000D03*
X52725000Y-62240000D03*
X52725000Y-61440000D03*
D30*
X52725000Y-60790000D03*
X52725000Y-59790000D03*
X52725000Y-58290000D03*
X52725000Y-57290000D03*
D29*
X52725000Y-56640000D03*
X52725000Y-55840000D03*
%TD*%
D31*
%TO.C,R8*%
X97800000Y-58800000D03*
X97800000Y-60800000D03*
%TD*%
D32*
%TO.C,U1*%
X76150000Y-42090000D03*
X76150000Y-43360000D03*
X76150000Y-44630000D03*
X76150000Y-45900000D03*
X76150000Y-47170000D03*
X76150000Y-48440000D03*
X76150000Y-49710000D03*
X76150000Y-50980000D03*
X76150000Y-52250000D03*
X76150000Y-53520000D03*
X76150000Y-54790000D03*
X76150000Y-56060000D03*
X76150000Y-57330000D03*
X76150000Y-58600000D03*
D33*
X77915000Y-59850000D03*
X79185000Y-59850000D03*
X80455000Y-59850000D03*
X81725000Y-59850000D03*
X82995000Y-59850000D03*
X84265000Y-59850000D03*
X85535000Y-59850000D03*
X86805000Y-59850000D03*
X88075000Y-59850000D03*
X89345000Y-59850000D03*
X90615000Y-59850000D03*
X91885000Y-59850000D03*
D32*
X93650000Y-58600000D03*
X93650000Y-57330000D03*
X93650000Y-56060000D03*
X93650000Y-54790000D03*
X93650000Y-53520000D03*
X93650000Y-52250000D03*
X93650000Y-50980000D03*
X93650000Y-49710000D03*
X93650000Y-48440000D03*
X93650000Y-47170000D03*
X93650000Y-45900000D03*
X93650000Y-44630000D03*
X93650000Y-43360000D03*
X93650000Y-42090000D03*
D34*
X82000000Y-48410000D03*
X83400000Y-48410000D03*
X84800000Y-48410000D03*
X82000000Y-49810000D03*
X83400000Y-49810000D03*
X84800000Y-49810000D03*
X82000000Y-51210000D03*
X83400000Y-51210000D03*
X84800000Y-51210000D03*
%TD*%
D16*
%TO.C,R3*%
X56100000Y-62775000D03*
X56100000Y-60775000D03*
%TD*%
D15*
%TO.C,R12*%
X94170000Y-64500000D03*
X93150000Y-64500000D03*
%TD*%
D18*
%TO.C,C9*%
X103100000Y-62162500D03*
X103100000Y-64237500D03*
%TD*%
D15*
%TO.C,R14*%
X76100000Y-64650000D03*
X75080000Y-64650000D03*
%TD*%
D35*
%TO.C,C1*%
X60100000Y-60700000D03*
X59140000Y-60700000D03*
%TD*%
D36*
%TO.C,U3*%
X59050000Y-58262500D03*
D37*
X58975000Y-58800000D03*
D36*
X59050000Y-59337500D03*
X60750000Y-59337500D03*
D37*
X60825000Y-58800000D03*
D36*
X60750000Y-58262500D03*
%TD*%
D20*
%TO.C,D3*%
X85002500Y-66220000D03*
X87052500Y-66220000D03*
%TD*%
D38*
%TO.C,U5*%
X114175000Y-52495000D03*
X114175000Y-53765000D03*
X114175000Y-55035000D03*
X114175000Y-56305000D03*
X119125000Y-56305000D03*
X119125000Y-55035000D03*
X119125000Y-53765000D03*
X119125000Y-52495000D03*
%TD*%
D20*
%TO.C,D5*%
X67475000Y-66310000D03*
X69525000Y-66310000D03*
%TD*%
D16*
%TO.C,R6*%
X122650000Y-59040000D03*
X122650000Y-57040000D03*
%TD*%
D39*
%TO.C,Y1*%
X101100000Y-45050000D03*
X109600000Y-45050000D03*
%TD*%
D15*
%TO.C,R5*%
X61410000Y-49575000D03*
X60390000Y-49575000D03*
%TD*%
D27*
%TO.C,Boot*%
X48300000Y-69500000D03*
X51700000Y-69500000D03*
%TD*%
D19*
%TO.C,C14*%
X54320000Y-48457500D03*
X54320000Y-46382500D03*
%TD*%
D40*
X120000000Y-38500000D02*
X50000000Y-38500000D01*
X123500000Y-76550000D02*
X131350000Y-76550000D01*
X50000000Y-80000000D02*
G75*
G02*
X46500000Y-76500000I0J3500000D01*
G01*
X46500000Y-42000000D02*
X46500000Y-76500000D01*
X123500000Y-42000000D02*
X131275000Y-42000000D01*
X131350000Y-76550000D02*
X131350000Y-42000000D01*
X46500000Y-42000000D02*
G75*
G02*
X50000000Y-38500000I3500000J0D01*
G01*
X120000000Y-80000000D02*
X50000000Y-80000000D01*
X120000000Y-38500000D02*
G75*
G02*
X123500000Y-42000000I0J-3500000D01*
G01*
X123499643Y-76549995D02*
G75*
G02*
X120000000Y-80000000I-3499643J49995D01*
G01*
X131275000Y-42000000D02*
X131350000Y-42000000D01*
M02*
