%TF.GenerationSoftware,KiCad,Pcbnew,9.0.2-rc1-202504292220~4c561b3193~ubuntu24.04.1*%
%TF.CreationDate,2025-05-14T22:04:50-03:00*%
%TF.ProjectId,hardware,68617264-7761-4726-952e-6b696361645f,rev?*%
%TF.SameCoordinates,Original*%
%TF.FileFunction,Copper,L3,Inr*%
%TF.FilePolarity,Positive*%
%FSLAX46Y46*%
G04 Gerber Fmt 4.6, Leading zero omitted, Abs format (unit mm)*
G04 Created by KiCad (PCBNEW 9.0.2-rc1-202504292220~4c561b3193~ubuntu24.04.1) date 2025-05-14 22:04:50*
%MOMM*%
%LPD*%
G01*
G04 APERTURE LIST*
G04 Aperture macros list*
%AMRoundRect*
0 Rectangle with rounded corners*
0 $1 Rounding radius*
0 $2 $3 $4 $5 $6 $7 $8 $9 X,Y pos of 4 corners*
0 Add a 4 corners polygon primitive as box body*
4,1,4,$2,$3,$4,$5,$6,$7,$8,$9,$2,$3,0*
0 Add four circle primitives for the rounded corners*
1,1,$1+$1,$2,$3*
1,1,$1+$1,$4,$5*
1,1,$1+$1,$6,$7*
1,1,$1+$1,$8,$9*
0 Add four rect primitives between the rounded corners*
20,1,$1+$1,$2,$3,$4,$5,0*
20,1,$1+$1,$4,$5,$6,$7,0*
20,1,$1+$1,$6,$7,$8,$9,0*
20,1,$1+$1,$8,$9,$2,$3,0*%
G04 Aperture macros list end*
%TA.AperFunction,ComponentPad*%
%ADD10R,2.500000X2.500000*%
%TD*%
%TA.AperFunction,ComponentPad*%
%ADD11C,2.500000*%
%TD*%
%TA.AperFunction,ComponentPad*%
%ADD12RoundRect,0.250000X0.600000X0.725000X-0.600000X0.725000X-0.600000X-0.725000X0.600000X-0.725000X0*%
%TD*%
%TA.AperFunction,ComponentPad*%
%ADD13O,1.700000X1.950000*%
%TD*%
%TA.AperFunction,HeatsinkPad*%
%ADD14C,0.500000*%
%TD*%
%TA.AperFunction,ComponentPad*%
%ADD15O,2.100000X1.000000*%
%TD*%
%TA.AperFunction,ComponentPad*%
%ADD16O,1.800000X1.000000*%
%TD*%
%TA.AperFunction,ComponentPad*%
%ADD17R,0.850000X0.850000*%
%TD*%
%TA.AperFunction,ComponentPad*%
%ADD18O,0.850000X0.850000*%
%TD*%
%TA.AperFunction,ComponentPad*%
%ADD19RoundRect,0.249999X-0.790001X-1.550001X0.790001X-1.550001X0.790001X1.550001X-0.790001X1.550001X0*%
%TD*%
%TA.AperFunction,ComponentPad*%
%ADD20O,2.080000X3.600000*%
%TD*%
%TA.AperFunction,ViaPad*%
%ADD21C,0.600000*%
%TD*%
%TA.AperFunction,Profile*%
%ADD22C,0.050000*%
%TD*%
G04 APERTURE END LIST*
D10*
%TO.N,unconnected-(J3-Pad1)*%
%TO.C,J3*%
X129525000Y-73075000D03*
D11*
%TO.N,unconnected-(J3-Pad2)*%
X129525000Y-69075000D03*
%TO.N,unconnected-(J3-Pad3)*%
X129525000Y-65075000D03*
%TO.N,unconnected-(J3-Pad4)*%
X129525000Y-61075000D03*
%TO.N,GND*%
X129525000Y-57075000D03*
%TO.N,/CANH*%
X129525000Y-53075000D03*
%TO.N,unconnected-(J3-Pad7)*%
X129525000Y-49075000D03*
%TO.N,unconnected-(J3-Pad8)*%
X129525000Y-45075000D03*
%TO.N,unconnected-(J3-Pad9)*%
X126525000Y-73075000D03*
%TO.N,unconnected-(J3-Pad10)*%
X126525000Y-69075000D03*
%TO.N,unconnected-(J3-Pad11)*%
X126525000Y-65075000D03*
%TO.N,unconnected-(J3-Pad12)*%
X126525000Y-61075000D03*
%TO.N,unconnected-(J3-Pad13)*%
X126525000Y-57075000D03*
%TO.N,/CANL*%
X126525000Y-53075000D03*
%TO.N,unconnected-(J3-Pad15)*%
X126525000Y-49075000D03*
%TO.N,unconnected-(J3-Pad16)*%
X126525000Y-45075000D03*
%TD*%
D12*
%TO.N,/MotorA-*%
%TO.C,J4*%
X70530000Y-78050000D03*
D13*
%TO.N,/3.3V*%
X68030000Y-78050000D03*
%TO.N,/PulseA_01*%
X65530000Y-78050000D03*
%TO.N,/PulseA_02*%
X63030000Y-78050000D03*
%TO.N,GND*%
X60530000Y-78050000D03*
%TO.N,/MotorA+*%
X58030000Y-78050000D03*
%TD*%
D14*
%TO.N,GND*%
%TO.C,U4*%
X61950000Y-51600000D03*
X60850000Y-51600000D03*
%TD*%
D15*
%TO.N,GND*%
%TO.C,J1*%
X52125000Y-54720000D03*
D16*
X47925000Y-54720000D03*
D15*
X52125000Y-63360000D03*
D16*
X47925000Y-63360000D03*
%TD*%
D12*
%TO.N,/MotorB-*%
%TO.C,J6*%
X91990000Y-78050000D03*
D13*
%TO.N,/3.3V*%
X89490000Y-78050000D03*
%TO.N,/PulseB_01*%
X86990000Y-78050000D03*
%TO.N,/PulseB_02*%
X84490000Y-78050000D03*
%TO.N,GND*%
X81990000Y-78050000D03*
%TO.N,/MotorB+*%
X79490000Y-78050000D03*
%TD*%
D17*
%TO.N,/CANH*%
%TO.C,J5*%
X122650000Y-54040000D03*
D18*
%TO.N,/CANL*%
X122650000Y-55040000D03*
%TD*%
D17*
%TO.N,Net-(J2-Pin_1)*%
%TO.C,J2*%
X119900000Y-59100000D03*
D18*
%TO.N,/CANL*%
X118900000Y-59100000D03*
%TD*%
D19*
%TO.N,GND*%
%TO.C,J8*%
X102760000Y-77422500D03*
D20*
%TO.N,/V_Motor*%
X107840000Y-77422500D03*
%TD*%
D21*
%TO.N,GND*%
X81990000Y-76360000D03*
X72970000Y-69690000D03*
X60560000Y-76410000D03*
X72290000Y-64480000D03*
X101620000Y-67750000D03*
X64100000Y-52700000D03*
X82890000Y-67330000D03*
X114530000Y-76880000D03*
X57482500Y-72567500D03*
X59825000Y-58800000D03*
X65730000Y-52550000D03*
X86440000Y-51400000D03*
X122300000Y-62340000D03*
X84840000Y-52610000D03*
X111950000Y-49560000D03*
X89420000Y-74160000D03*
X78190000Y-42130000D03*
X80530000Y-51340000D03*
X86440000Y-49870000D03*
X62240000Y-67290000D03*
X70830000Y-52580000D03*
X48190000Y-64780000D03*
X54260000Y-66247500D03*
X54450000Y-62825000D03*
X122160000Y-67860000D03*
X116100000Y-53720000D03*
X49890000Y-48510000D03*
X119310000Y-51300000D03*
X52280302Y-53387676D03*
X49030000Y-51920000D03*
X47930000Y-53480000D03*
X53640000Y-75670000D03*
X83590000Y-47010000D03*
X51390556Y-65512763D03*
X84920000Y-47080000D03*
X67460000Y-74090000D03*
X83420000Y-52580000D03*
X49575000Y-69405000D03*
X61350000Y-44970000D03*
X97950000Y-41200000D03*
X55840000Y-46350000D03*
X63782500Y-70607500D03*
X67930000Y-41290000D03*
X81900000Y-52480000D03*
X91530000Y-42180000D03*
X109720000Y-72440000D03*
X85805000Y-70745000D03*
X58110000Y-60760000D03*
X81990000Y-46930000D03*
X112850000Y-41320000D03*
X80570000Y-49830000D03*
X116330000Y-46470000D03*
X79310000Y-72720000D03*
X53980000Y-73120000D03*
X107520000Y-64250000D03*
X120200000Y-48300000D03*
X54300000Y-55800000D03*
X86420000Y-48640000D03*
X80590000Y-48390000D03*
%TO.N,/5V*%
X62510000Y-54430000D03*
X60998739Y-60646382D03*
X61800000Y-58800000D03*
X54475000Y-61425000D03*
X54325000Y-56650000D03*
X60725000Y-54475000D03*
%TO.N,/3.3V*%
X69220000Y-52415000D03*
X107560300Y-62173766D03*
X115940000Y-55090000D03*
X62960000Y-49540000D03*
X96180000Y-60740000D03*
X68070000Y-46670000D03*
X68070000Y-43460000D03*
X73150000Y-44640000D03*
%TO.N,/GPIO0*%
X70780000Y-60550000D03*
X78670000Y-55770000D03*
%TO.N,/PulseA_02*%
X66600000Y-56550000D03*
%TO.N,/MotorA+*%
X68310000Y-71260000D03*
%TO.N,/MotorA-*%
X68270000Y-68710000D03*
%TO.N,/PulseA_01*%
X67010000Y-57975000D03*
%TO.N,/PulseB_01*%
X86760000Y-61960000D03*
%TO.N,/MotorB-*%
X90200000Y-68850000D03*
%TO.N,/PulseB_02*%
X85440000Y-62030000D03*
%TO.N,/MotorB+*%
X89930000Y-71390000D03*
%TO.N,/PWM_B1*%
X82780000Y-64470000D03*
X78540000Y-63970000D03*
%TO.N,/PWM_A1*%
X67450000Y-64310000D03*
X67440000Y-61195000D03*
%TD*%
%TA.AperFunction,Conductor*%
%TO.N,/MotorA+*%
G36*
X68650768Y-70819430D02*
G01*
X68696959Y-70871853D01*
X68708587Y-70925690D01*
X68701368Y-71568216D01*
X68680932Y-71635030D01*
X68627617Y-71680189D01*
X68578211Y-71690820D01*
X65729999Y-71710000D01*
X59250000Y-75929999D01*
X59245582Y-76932579D01*
X59225602Y-76999531D01*
X59172597Y-77045053D01*
X59103395Y-77054692D01*
X59039968Y-77025387D01*
X59033902Y-77019714D01*
X58909464Y-76895276D01*
X58909459Y-76895272D01*
X58737557Y-76770379D01*
X58548215Y-76673903D01*
X58346124Y-76608241D01*
X58280000Y-76597768D01*
X58280000Y-77645854D01*
X58213343Y-77607370D01*
X58092535Y-77575000D01*
X57967465Y-77575000D01*
X57846657Y-77607370D01*
X57780000Y-77645854D01*
X57780000Y-76597768D01*
X57779999Y-76597768D01*
X57713875Y-76608241D01*
X57511784Y-76673903D01*
X57322442Y-76770379D01*
X57150540Y-76895272D01*
X57146213Y-76899599D01*
X57084887Y-76933080D01*
X57015196Y-76928091D01*
X56959265Y-76886216D01*
X56934852Y-76820750D01*
X56934553Y-76809929D01*
X56948903Y-75927411D01*
X56969675Y-75860703D01*
X57007176Y-75824273D01*
X64970320Y-70848544D01*
X65034993Y-70829709D01*
X68583570Y-70800301D01*
X68650768Y-70819430D01*
G37*
%TD.AperFunction*%
%TD*%
%TA.AperFunction,Conductor*%
%TO.N,/MotorA-*%
G36*
X69965363Y-68135062D02*
G01*
X70012231Y-68186881D01*
X70014739Y-68192419D01*
X71700710Y-72173032D01*
X71710528Y-72221823D01*
X71695440Y-76570828D01*
X71675523Y-76637799D01*
X71622561Y-76683370D01*
X71553368Y-76693074D01*
X71506345Y-76675937D01*
X71449128Y-76640645D01*
X71449119Y-76640641D01*
X71282697Y-76585494D01*
X71282690Y-76585493D01*
X71179986Y-76575000D01*
X70780000Y-76575000D01*
X70780000Y-77645854D01*
X70713343Y-77607370D01*
X70592535Y-77575000D01*
X70467465Y-77575000D01*
X70346657Y-77607370D01*
X70280000Y-77645854D01*
X70280000Y-76575000D01*
X69880028Y-76575000D01*
X69880012Y-76575001D01*
X69777302Y-76585494D01*
X69610880Y-76640641D01*
X69610875Y-76640643D01*
X69578875Y-76660382D01*
X69511482Y-76678822D01*
X69444819Y-76657899D01*
X69400049Y-76604257D01*
X69389778Y-76554843D01*
X69389778Y-75321283D01*
X69389784Y-75320049D01*
X69430000Y-71280001D01*
X69208855Y-70830086D01*
X69198934Y-70801565D01*
X69191067Y-70765141D01*
X69191066Y-70765138D01*
X69191065Y-70765133D01*
X69155022Y-70658057D01*
X69076234Y-70537666D01*
X69062048Y-70521566D01*
X69043801Y-70494288D01*
X68429863Y-69245250D01*
X65816448Y-69224173D01*
X65749569Y-69203948D01*
X65704242Y-69150777D01*
X65693502Y-69096532D01*
X65716238Y-68323507D01*
X65737885Y-68257075D01*
X65792011Y-68212892D01*
X65838465Y-68203499D01*
X65838459Y-68203180D01*
X65839775Y-68203152D01*
X65839778Y-68203152D01*
X69897920Y-68116808D01*
X69965363Y-68135062D01*
G37*
%TD.AperFunction*%
%TD*%
%TA.AperFunction,Conductor*%
%TO.N,/MotorB-*%
G36*
X90516112Y-68419685D02*
G01*
X90561867Y-68472489D01*
X90562580Y-68474080D01*
X93149639Y-74356443D01*
X93160130Y-74405734D01*
X93171164Y-76579469D01*
X93151820Y-76646607D01*
X93099249Y-76692629D01*
X93030142Y-76702924D01*
X92982069Y-76685636D01*
X92909130Y-76640646D01*
X92909119Y-76640641D01*
X92742697Y-76585494D01*
X92742690Y-76585493D01*
X92639986Y-76575000D01*
X92240000Y-76575000D01*
X92240000Y-77645854D01*
X92173343Y-77607370D01*
X92052535Y-77575000D01*
X91927465Y-77575000D01*
X91806657Y-77607370D01*
X91740000Y-77645854D01*
X91740000Y-76575000D01*
X91340028Y-76575000D01*
X91340012Y-76575001D01*
X91237302Y-76585494D01*
X91070880Y-76640641D01*
X91070873Y-76640645D01*
X91028466Y-76666801D01*
X90961073Y-76685240D01*
X90894410Y-76664316D01*
X90849641Y-76610673D01*
X90839391Y-76563413D01*
X90800049Y-74292828D01*
X90800079Y-74287192D01*
X90880000Y-71450001D01*
X90879999Y-71449996D01*
X90869002Y-71412929D01*
X90817123Y-71238044D01*
X90812375Y-71202051D01*
X90812164Y-71202058D01*
X90812105Y-71200010D01*
X90812045Y-71199550D01*
X90812068Y-71198677D01*
X90809043Y-71162226D01*
X90802997Y-71089341D01*
X90802996Y-71089335D01*
X90802995Y-71089333D01*
X90802995Y-71089325D01*
X90792808Y-71036789D01*
X90760354Y-70931975D01*
X90703289Y-70839277D01*
X90690010Y-70809553D01*
X90260000Y-69360000D01*
X90259999Y-69359999D01*
X87771625Y-69312329D01*
X87704975Y-69291364D01*
X87660240Y-69237694D01*
X87650000Y-69188352D01*
X87650000Y-68524000D01*
X87669685Y-68456961D01*
X87722489Y-68411206D01*
X87774000Y-68400000D01*
X90449073Y-68400000D01*
X90516112Y-68419685D01*
G37*
%TD.AperFunction*%
%TD*%
%TA.AperFunction,Conductor*%
%TO.N,/5V*%
G36*
X60279309Y-52094685D02*
G01*
X60299951Y-52111319D01*
X60371580Y-52182948D01*
X60371584Y-52182951D01*
X60494498Y-52265080D01*
X60494511Y-52265087D01*
X60631082Y-52321656D01*
X60631087Y-52321658D01*
X60631091Y-52321658D01*
X60631092Y-52321659D01*
X60776079Y-52350500D01*
X60776082Y-52350500D01*
X60923920Y-52350500D01*
X61021462Y-52331096D01*
X61068913Y-52321658D01*
X61205495Y-52265084D01*
X61328416Y-52182951D01*
X61328417Y-52182949D01*
X61331109Y-52181151D01*
X61397786Y-52160273D01*
X61465166Y-52178757D01*
X61468891Y-52181151D01*
X61471582Y-52182949D01*
X61471584Y-52182951D01*
X61594505Y-52265084D01*
X61594507Y-52265085D01*
X61594511Y-52265087D01*
X61731082Y-52321656D01*
X61731087Y-52321658D01*
X61731091Y-52321658D01*
X61731092Y-52321659D01*
X61876079Y-52350500D01*
X61876082Y-52350500D01*
X62023920Y-52350500D01*
X62121462Y-52331096D01*
X62168913Y-52321658D01*
X62305495Y-52265084D01*
X62428416Y-52182951D01*
X62463878Y-52147489D01*
X62500049Y-52111319D01*
X62526976Y-52096615D01*
X62552795Y-52080023D01*
X62558995Y-52079131D01*
X62561372Y-52077834D01*
X62587730Y-52075000D01*
X62801380Y-52075000D01*
X62868419Y-52094685D01*
X62914174Y-52147489D01*
X62925379Y-52198619D01*
X62964617Y-64980327D01*
X62945139Y-65047427D01*
X62892475Y-65093344D01*
X62840328Y-65104708D01*
X52129924Y-65079683D01*
X52062931Y-65059842D01*
X52027112Y-65024574D01*
X52012345Y-65002473D01*
X51900848Y-64890976D01*
X51900844Y-64890973D01*
X51769741Y-64803372D01*
X51769728Y-64803365D01*
X51624057Y-64743027D01*
X51624045Y-64743024D01*
X51469401Y-64712263D01*
X51469398Y-64712263D01*
X51311714Y-64712263D01*
X51311711Y-64712263D01*
X51157066Y-64743024D01*
X51157054Y-64743027D01*
X51011383Y-64803365D01*
X51011370Y-64803372D01*
X50880268Y-64890972D01*
X50768764Y-65002477D01*
X50756303Y-65021126D01*
X50702689Y-65065929D01*
X50652913Y-65076232D01*
X50247761Y-65075286D01*
X50180768Y-65055445D01*
X50135137Y-65002534D01*
X50124055Y-64952243D01*
X50112338Y-63428995D01*
X50874499Y-63428995D01*
X50901418Y-63564322D01*
X50901421Y-63564332D01*
X50954221Y-63691804D01*
X50954228Y-63691817D01*
X51030885Y-63806541D01*
X51030888Y-63806545D01*
X51128454Y-63904111D01*
X51128458Y-63904114D01*
X51243182Y-63980771D01*
X51243195Y-63980778D01*
X51370667Y-64033578D01*
X51370672Y-64033580D01*
X51370676Y-64033580D01*
X51370677Y-64033581D01*
X51506004Y-64060500D01*
X51506007Y-64060500D01*
X52743995Y-64060500D01*
X52835041Y-64042389D01*
X52879328Y-64033580D01*
X53006811Y-63980775D01*
X53121542Y-63904114D01*
X53219114Y-63806542D01*
X53295775Y-63691811D01*
X53348580Y-63564328D01*
X53375500Y-63428993D01*
X53375500Y-63291007D01*
X53375500Y-63291004D01*
X53348581Y-63155677D01*
X53348580Y-63155676D01*
X53348580Y-63155672D01*
X53308326Y-63058489D01*
X53295778Y-63028195D01*
X53295771Y-63028182D01*
X53219114Y-62913458D01*
X53219111Y-62913454D01*
X53121545Y-62815888D01*
X53121541Y-62815885D01*
X53017181Y-62746153D01*
X53649500Y-62746153D01*
X53649500Y-62903846D01*
X53680261Y-63058489D01*
X53680264Y-63058501D01*
X53740602Y-63204172D01*
X53740609Y-63204185D01*
X53828210Y-63335288D01*
X53828213Y-63335292D01*
X53939707Y-63446786D01*
X53939711Y-63446789D01*
X54070814Y-63534390D01*
X54070827Y-63534397D01*
X54143098Y-63564332D01*
X54216503Y-63594737D01*
X54371153Y-63625499D01*
X54371156Y-63625500D01*
X54371158Y-63625500D01*
X54528844Y-63625500D01*
X54528845Y-63625499D01*
X54683497Y-63594737D01*
X54829179Y-63534394D01*
X54960289Y-63446789D01*
X55071789Y-63335289D01*
X55159394Y-63204179D01*
X55219737Y-63058497D01*
X55250500Y-62903842D01*
X55250500Y-62746158D01*
X55250500Y-62746155D01*
X55250499Y-62746153D01*
X55238617Y-62686418D01*
X55219737Y-62591503D01*
X55189724Y-62519044D01*
X55159397Y-62445827D01*
X55159390Y-62445814D01*
X55071789Y-62314711D01*
X55071786Y-62314707D01*
X54960292Y-62203213D01*
X54960288Y-62203210D01*
X54829185Y-62115609D01*
X54829172Y-62115602D01*
X54683501Y-62055264D01*
X54683489Y-62055261D01*
X54528845Y-62024500D01*
X54528842Y-62024500D01*
X54371158Y-62024500D01*
X54371155Y-62024500D01*
X54216510Y-62055261D01*
X54216498Y-62055264D01*
X54070827Y-62115602D01*
X54070814Y-62115609D01*
X53939711Y-62203210D01*
X53939707Y-62203213D01*
X53828213Y-62314707D01*
X53828210Y-62314711D01*
X53740609Y-62445814D01*
X53740602Y-62445827D01*
X53680264Y-62591498D01*
X53680261Y-62591510D01*
X53649500Y-62746153D01*
X53017181Y-62746153D01*
X53006817Y-62739228D01*
X53006804Y-62739221D01*
X52879332Y-62686421D01*
X52879322Y-62686418D01*
X52743995Y-62659500D01*
X52743993Y-62659500D01*
X52130164Y-62659500D01*
X52063125Y-62639815D01*
X52017370Y-62587011D01*
X52007426Y-62517853D01*
X52036451Y-62454297D01*
X52042483Y-62447819D01*
X52129692Y-62360609D01*
X52129695Y-62360606D01*
X52203620Y-62249969D01*
X52254540Y-62127036D01*
X52268817Y-62055263D01*
X52280500Y-61996533D01*
X52280500Y-61863466D01*
X52254541Y-61732969D01*
X52254540Y-61732968D01*
X52254540Y-61732964D01*
X52203620Y-61610031D01*
X52149969Y-61529737D01*
X52129698Y-61499398D01*
X52129692Y-61499390D01*
X52035609Y-61405307D01*
X52035601Y-61405301D01*
X51924979Y-61331386D01*
X51924972Y-61331382D01*
X51924969Y-61331380D01*
X51924965Y-61331378D01*
X51924961Y-61331376D01*
X51802040Y-61280461D01*
X51802030Y-61280458D01*
X51671533Y-61254500D01*
X51671531Y-61254500D01*
X51538469Y-61254500D01*
X51538467Y-61254500D01*
X51407969Y-61280458D01*
X51407959Y-61280461D01*
X51285038Y-61331376D01*
X51285020Y-61331386D01*
X51174398Y-61405301D01*
X51174390Y-61405307D01*
X51080307Y-61499390D01*
X51080301Y-61499398D01*
X51006386Y-61610020D01*
X51006376Y-61610038D01*
X50955461Y-61732959D01*
X50955458Y-61732969D01*
X50929500Y-61863466D01*
X50929500Y-61863469D01*
X50929500Y-61996531D01*
X50929500Y-61996533D01*
X50929499Y-61996533D01*
X50955458Y-62127030D01*
X50955461Y-62127040D01*
X51006376Y-62249961D01*
X51006386Y-62249979D01*
X51080301Y-62360601D01*
X51080307Y-62360609D01*
X51174391Y-62454693D01*
X51174394Y-62454695D01*
X51270700Y-62519044D01*
X51315506Y-62572657D01*
X51324213Y-62641981D01*
X51294059Y-62705009D01*
X51249270Y-62736705D01*
X51243196Y-62739221D01*
X51243182Y-62739228D01*
X51128458Y-62815885D01*
X51128454Y-62815888D01*
X51030888Y-62913454D01*
X51030885Y-62913458D01*
X50954228Y-63028182D01*
X50954221Y-63028195D01*
X50901421Y-63155667D01*
X50901418Y-63155677D01*
X50874500Y-63291004D01*
X50874500Y-63291007D01*
X50874500Y-63428993D01*
X50874500Y-63428995D01*
X50874499Y-63428995D01*
X50112338Y-63428995D01*
X50091201Y-60681153D01*
X57309500Y-60681153D01*
X57309500Y-60838846D01*
X57340261Y-60993489D01*
X57340264Y-60993501D01*
X57400602Y-61139172D01*
X57400609Y-61139185D01*
X57488210Y-61270288D01*
X57488213Y-61270292D01*
X57599707Y-61381786D01*
X57599711Y-61381789D01*
X57730814Y-61469390D01*
X57730827Y-61469397D01*
X57876498Y-61529735D01*
X57876503Y-61529737D01*
X58031153Y-61560499D01*
X58031156Y-61560500D01*
X58031158Y-61560500D01*
X58188844Y-61560500D01*
X58188845Y-61560499D01*
X58343497Y-61529737D01*
X58489179Y-61469394D01*
X58620289Y-61381789D01*
X58731789Y-61270289D01*
X58819394Y-61139179D01*
X58879737Y-60993497D01*
X58910500Y-60838842D01*
X58910500Y-60681158D01*
X58910500Y-60681155D01*
X58910499Y-60681153D01*
X58879738Y-60526510D01*
X58879737Y-60526503D01*
X58879735Y-60526498D01*
X58819397Y-60380827D01*
X58819390Y-60380814D01*
X58731789Y-60249711D01*
X58731786Y-60249707D01*
X58620292Y-60138213D01*
X58620288Y-60138210D01*
X58489185Y-60050609D01*
X58489172Y-60050602D01*
X58343501Y-59990264D01*
X58343489Y-59990261D01*
X58188845Y-59959500D01*
X58188842Y-59959500D01*
X58031158Y-59959500D01*
X58031155Y-59959500D01*
X57876510Y-59990261D01*
X57876498Y-59990264D01*
X57730827Y-60050602D01*
X57730814Y-60050609D01*
X57599711Y-60138210D01*
X57599707Y-60138213D01*
X57488213Y-60249707D01*
X57488210Y-60249711D01*
X57400609Y-60380814D01*
X57400602Y-60380827D01*
X57340264Y-60526498D01*
X57340261Y-60526510D01*
X57309500Y-60681153D01*
X50091201Y-60681153D01*
X50076124Y-58721153D01*
X59024500Y-58721153D01*
X59024500Y-58878846D01*
X59055261Y-59033489D01*
X59055264Y-59033501D01*
X59115602Y-59179172D01*
X59115609Y-59179185D01*
X59203210Y-59310288D01*
X59203213Y-59310292D01*
X59314707Y-59421786D01*
X59314711Y-59421789D01*
X59445814Y-59509390D01*
X59445827Y-59509397D01*
X59591498Y-59569735D01*
X59591503Y-59569737D01*
X59746153Y-59600499D01*
X59746156Y-59600500D01*
X59746158Y-59600500D01*
X59903844Y-59600500D01*
X59903845Y-59600499D01*
X60058497Y-59569737D01*
X60204179Y-59509394D01*
X60335289Y-59421789D01*
X60446789Y-59310289D01*
X60534394Y-59179179D01*
X60594737Y-59033497D01*
X60625500Y-58878842D01*
X60625500Y-58721158D01*
X60625500Y-58721155D01*
X60625499Y-58721153D01*
X60594738Y-58566510D01*
X60594737Y-58566503D01*
X60594735Y-58566498D01*
X60534397Y-58420827D01*
X60534390Y-58420814D01*
X60446789Y-58289711D01*
X60446786Y-58289707D01*
X60335292Y-58178213D01*
X60335288Y-58178210D01*
X60204185Y-58090609D01*
X60204172Y-58090602D01*
X60058501Y-58030264D01*
X60058489Y-58030261D01*
X59903845Y-57999500D01*
X59903842Y-57999500D01*
X59746158Y-57999500D01*
X59746155Y-57999500D01*
X59591510Y-58030261D01*
X59591498Y-58030264D01*
X59445827Y-58090602D01*
X59445814Y-58090609D01*
X59314711Y-58178210D01*
X59314707Y-58178213D01*
X59203213Y-58289707D01*
X59203210Y-58289711D01*
X59115609Y-58420814D01*
X59115602Y-58420827D01*
X59055264Y-58566498D01*
X59055261Y-58566510D01*
X59024500Y-58721153D01*
X50076124Y-58721153D01*
X50045876Y-54788995D01*
X50874499Y-54788995D01*
X50901418Y-54924322D01*
X50901421Y-54924332D01*
X50954221Y-55051804D01*
X50954228Y-55051817D01*
X51030885Y-55166541D01*
X51030888Y-55166545D01*
X51128454Y-55264111D01*
X51128458Y-55264114D01*
X51243182Y-55340771D01*
X51243186Y-55340773D01*
X51243189Y-55340775D01*
X51249263Y-55343291D01*
X51303666Y-55387131D01*
X51325731Y-55453425D01*
X51308452Y-55521124D01*
X51270701Y-55560954D01*
X51174394Y-55625304D01*
X51174390Y-55625307D01*
X51080307Y-55719390D01*
X51080301Y-55719398D01*
X51006386Y-55830020D01*
X51006376Y-55830038D01*
X50955461Y-55952959D01*
X50955458Y-55952969D01*
X50929500Y-56083466D01*
X50929500Y-56083469D01*
X50929500Y-56216531D01*
X50929500Y-56216533D01*
X50929499Y-56216533D01*
X50955458Y-56347030D01*
X50955461Y-56347040D01*
X51006376Y-56469961D01*
X51006386Y-56469979D01*
X51080301Y-56580601D01*
X51080307Y-56580609D01*
X51174390Y-56674692D01*
X51174398Y-56674698D01*
X51285020Y-56748613D01*
X51285023Y-56748614D01*
X51285031Y-56748620D01*
X51407964Y-56799540D01*
X51407968Y-56799540D01*
X51407969Y-56799541D01*
X51538466Y-56825500D01*
X51538469Y-56825500D01*
X51671533Y-56825500D01*
X51759325Y-56808035D01*
X51802036Y-56799540D01*
X51924969Y-56748620D01*
X52035606Y-56674695D01*
X52129695Y-56580606D01*
X52203620Y-56469969D01*
X52254540Y-56347036D01*
X52280500Y-56216531D01*
X52280500Y-56083469D01*
X52280500Y-56083466D01*
X52254541Y-55952969D01*
X52254540Y-55952968D01*
X52254540Y-55952964D01*
X52203620Y-55830031D01*
X52130870Y-55721153D01*
X53499500Y-55721153D01*
X53499500Y-55878846D01*
X53530261Y-56033489D01*
X53530264Y-56033501D01*
X53590602Y-56179172D01*
X53590609Y-56179185D01*
X53678210Y-56310288D01*
X53678213Y-56310292D01*
X53789707Y-56421786D01*
X53789711Y-56421789D01*
X53920814Y-56509390D01*
X53920827Y-56509397D01*
X54066498Y-56569735D01*
X54066503Y-56569737D01*
X54221153Y-56600499D01*
X54221156Y-56600500D01*
X54221158Y-56600500D01*
X54378844Y-56600500D01*
X54378845Y-56600499D01*
X54533497Y-56569737D01*
X54679179Y-56509394D01*
X54810289Y-56421789D01*
X54921789Y-56310289D01*
X55009394Y-56179179D01*
X55069737Y-56033497D01*
X55100500Y-55878842D01*
X55100500Y-55721158D01*
X55100500Y-55721155D01*
X55100499Y-55721153D01*
X55081434Y-55625307D01*
X55069737Y-55566503D01*
X55042674Y-55501166D01*
X55009397Y-55420827D01*
X55009390Y-55420814D01*
X54921789Y-55289711D01*
X54921786Y-55289707D01*
X54810292Y-55178213D01*
X54810288Y-55178210D01*
X54679185Y-55090609D01*
X54679172Y-55090602D01*
X54533501Y-55030264D01*
X54533489Y-55030261D01*
X54378845Y-54999500D01*
X54378842Y-54999500D01*
X54221158Y-54999500D01*
X54221155Y-54999500D01*
X54066510Y-55030261D01*
X54066498Y-55030264D01*
X53920827Y-55090602D01*
X53920814Y-55090609D01*
X53789711Y-55178210D01*
X53789707Y-55178213D01*
X53678213Y-55289707D01*
X53678210Y-55289711D01*
X53590609Y-55420814D01*
X53590602Y-55420827D01*
X53530264Y-55566498D01*
X53530261Y-55566510D01*
X53499500Y-55721153D01*
X52130870Y-55721153D01*
X52129695Y-55719394D01*
X52039057Y-55628756D01*
X52035900Y-55625062D01*
X52023509Y-55597433D01*
X52008998Y-55570858D01*
X52009354Y-55565871D01*
X52007309Y-55561310D01*
X52011821Y-55531369D01*
X52013982Y-55501166D01*
X52016977Y-55497164D01*
X52017723Y-55492221D01*
X52037709Y-55469470D01*
X52055854Y-55445233D01*
X52060537Y-55443486D01*
X52063837Y-55439730D01*
X52092949Y-55431396D01*
X52121318Y-55420816D01*
X52130164Y-55420500D01*
X52743995Y-55420500D01*
X52835041Y-55402389D01*
X52879328Y-55393580D01*
X53006811Y-55340775D01*
X53121542Y-55264114D01*
X53219114Y-55166542D01*
X53295775Y-55051811D01*
X53348580Y-54924328D01*
X53375500Y-54788993D01*
X53375500Y-54651007D01*
X53375500Y-54651004D01*
X53348581Y-54515677D01*
X53348580Y-54515676D01*
X53348580Y-54515672D01*
X53348578Y-54515667D01*
X53295778Y-54388195D01*
X53295771Y-54388182D01*
X53219114Y-54273458D01*
X53219111Y-54273454D01*
X53121545Y-54175888D01*
X53121541Y-54175885D01*
X53006817Y-54099228D01*
X53006805Y-54099221D01*
X52959058Y-54079445D01*
X52904654Y-54035605D01*
X52882589Y-53969311D01*
X52899868Y-53901611D01*
X52903397Y-53896010D01*
X52989696Y-53766855D01*
X53050039Y-53621173D01*
X53080802Y-53466518D01*
X53080802Y-53308834D01*
X53080802Y-53308831D01*
X53080801Y-53308829D01*
X53050040Y-53154186D01*
X53050039Y-53154179D01*
X53050037Y-53154174D01*
X52989699Y-53008503D01*
X52989692Y-53008490D01*
X52902091Y-52877387D01*
X52902088Y-52877383D01*
X52790594Y-52765889D01*
X52790590Y-52765886D01*
X52659487Y-52678285D01*
X52659474Y-52678278D01*
X52513803Y-52617940D01*
X52513791Y-52617937D01*
X52359147Y-52587176D01*
X52359144Y-52587176D01*
X52201460Y-52587176D01*
X52201457Y-52587176D01*
X52046812Y-52617937D01*
X52046800Y-52617940D01*
X51901129Y-52678278D01*
X51901116Y-52678285D01*
X51770013Y-52765886D01*
X51770009Y-52765889D01*
X51658515Y-52877383D01*
X51658512Y-52877387D01*
X51570911Y-53008490D01*
X51570904Y-53008503D01*
X51510566Y-53154174D01*
X51510563Y-53154186D01*
X51479802Y-53308829D01*
X51479802Y-53466522D01*
X51510563Y-53621165D01*
X51510566Y-53621177D01*
X51570904Y-53766848D01*
X51570911Y-53766861D01*
X51610834Y-53826609D01*
X51631712Y-53893286D01*
X51613228Y-53960666D01*
X51561249Y-54007357D01*
X51512029Y-54018524D01*
X51512067Y-54018903D01*
X51509056Y-54019199D01*
X51507732Y-54019500D01*
X51506005Y-54019500D01*
X51370677Y-54046418D01*
X51370667Y-54046421D01*
X51243195Y-54099221D01*
X51243182Y-54099228D01*
X51128458Y-54175885D01*
X51128454Y-54175888D01*
X51030888Y-54273454D01*
X51030885Y-54273458D01*
X50954228Y-54388182D01*
X50954221Y-54388195D01*
X50901421Y-54515667D01*
X50901418Y-54515677D01*
X50874500Y-54651004D01*
X50874500Y-54651007D01*
X50874500Y-54788993D01*
X50874500Y-54788995D01*
X50874499Y-54788995D01*
X50045876Y-54788995D01*
X50043774Y-54515677D01*
X50031172Y-52877383D01*
X50025961Y-52199953D01*
X50045129Y-52132765D01*
X50097579Y-52086605D01*
X50149957Y-52075000D01*
X60212270Y-52075000D01*
X60279309Y-52094685D01*
G37*
%TD.AperFunction*%
%TD*%
%TA.AperFunction,Conductor*%
%TO.N,/MotorB+*%
G36*
X90185187Y-71058356D02*
G01*
X90251828Y-71079335D01*
X90296551Y-71133016D01*
X90306738Y-71185552D01*
X90293137Y-71709220D01*
X90271719Y-71775725D01*
X90217745Y-71820094D01*
X90169179Y-71830000D01*
X87660000Y-71830000D01*
X80680000Y-76000000D01*
X80648990Y-76879884D01*
X80626956Y-76946189D01*
X80572574Y-76990056D01*
X80503108Y-76997557D01*
X80440614Y-76966312D01*
X80437386Y-76963198D01*
X80369464Y-76895276D01*
X80369459Y-76895272D01*
X80197557Y-76770379D01*
X80008215Y-76673903D01*
X79806124Y-76608241D01*
X79740000Y-76597768D01*
X79740000Y-77645854D01*
X79673343Y-77607370D01*
X79552535Y-77575000D01*
X79427465Y-77575000D01*
X79306657Y-77607370D01*
X79240000Y-77645854D01*
X79240000Y-76597768D01*
X79239999Y-76597768D01*
X79173875Y-76608241D01*
X78971784Y-76673903D01*
X78782442Y-76770379D01*
X78610540Y-76895272D01*
X78606838Y-76898435D01*
X78606161Y-76897642D01*
X78549252Y-76928707D01*
X78479561Y-76923712D01*
X78423634Y-76881833D01*
X78399227Y-76816365D01*
X78398956Y-76804260D01*
X78448093Y-74955469D01*
X78469552Y-74888979D01*
X78520276Y-74846091D01*
X85679274Y-71556823D01*
X85731041Y-71545500D01*
X85883844Y-71545500D01*
X85883845Y-71545499D01*
X86038497Y-71514737D01*
X86184179Y-71454394D01*
X86315289Y-71366789D01*
X86426789Y-71255289D01*
X86447731Y-71223945D01*
X86499057Y-71180166D01*
X86876841Y-71006589D01*
X86931004Y-70995290D01*
X90185187Y-71058356D01*
G37*
%TD.AperFunction*%
%TD*%
%TA.AperFunction,Conductor*%
%TO.N,/3.3V*%
G36*
X120003243Y-38700669D02*
G01*
X120338405Y-38718235D01*
X120351313Y-38719592D01*
X120679587Y-38771585D01*
X120692270Y-38774280D01*
X121013332Y-38860309D01*
X121025665Y-38864316D01*
X121335971Y-38983432D01*
X121347807Y-38988701D01*
X121643977Y-39139607D01*
X121655191Y-39146083D01*
X121933943Y-39327106D01*
X121944444Y-39334735D01*
X122202749Y-39543907D01*
X122212394Y-39552592D01*
X122447407Y-39787605D01*
X122456092Y-39797250D01*
X122665264Y-40055555D01*
X122672893Y-40066056D01*
X122853913Y-40344802D01*
X122860395Y-40356029D01*
X123011293Y-40652182D01*
X123016571Y-40664037D01*
X123029689Y-40698210D01*
X123135681Y-40974329D01*
X123139692Y-40986673D01*
X123225717Y-41307723D01*
X123228415Y-41320419D01*
X123280407Y-41648686D01*
X123281764Y-41661594D01*
X123299330Y-41996756D01*
X123299500Y-42003246D01*
X123299500Y-42039883D01*
X123324879Y-42101153D01*
X123330024Y-42113574D01*
X123386426Y-42169976D01*
X123460118Y-42200500D01*
X123460120Y-42200500D01*
X124531840Y-42200500D01*
X124598879Y-42220185D01*
X124644634Y-42272989D01*
X124655836Y-42325444D01*
X124553395Y-55780264D01*
X124486079Y-64621853D01*
X124485937Y-64640444D01*
X124465743Y-64707332D01*
X124412592Y-64752683D01*
X124361941Y-64763500D01*
X108359336Y-64763500D01*
X108292297Y-64743815D01*
X108246542Y-64691011D01*
X108236598Y-64621853D01*
X108244775Y-64592048D01*
X108289735Y-64483501D01*
X108289737Y-64483497D01*
X108320500Y-64328842D01*
X108320500Y-64171158D01*
X108320500Y-64171155D01*
X108320499Y-64171153D01*
X108306509Y-64100821D01*
X108289737Y-64016503D01*
X108254244Y-63930814D01*
X108229397Y-63870827D01*
X108229390Y-63870814D01*
X108141789Y-63739711D01*
X108141786Y-63739707D01*
X108030292Y-63628213D01*
X108030288Y-63628210D01*
X107899185Y-63540609D01*
X107899172Y-63540602D01*
X107753501Y-63480264D01*
X107753489Y-63480261D01*
X107598845Y-63449500D01*
X107598842Y-63449500D01*
X107441158Y-63449500D01*
X107441155Y-63449500D01*
X107286510Y-63480261D01*
X107286498Y-63480264D01*
X107140827Y-63540602D01*
X107140814Y-63540609D01*
X107009711Y-63628210D01*
X107009707Y-63628213D01*
X106898213Y-63739707D01*
X106898210Y-63739711D01*
X106810609Y-63870814D01*
X106810602Y-63870827D01*
X106750264Y-64016498D01*
X106750261Y-64016510D01*
X106719500Y-64171153D01*
X106719500Y-64328846D01*
X106750261Y-64483489D01*
X106750264Y-64483501D01*
X106795225Y-64592048D01*
X106802694Y-64661518D01*
X106771418Y-64723997D01*
X106711329Y-64759648D01*
X106680664Y-64763500D01*
X83688896Y-64763500D01*
X83621857Y-64743815D01*
X83576102Y-64691011D01*
X83566158Y-64621853D01*
X83567279Y-64615308D01*
X83580500Y-64548844D01*
X83580500Y-64391155D01*
X83580499Y-64391153D01*
X83556400Y-64270000D01*
X83549737Y-64236503D01*
X83536062Y-64203489D01*
X83489397Y-64090827D01*
X83489390Y-64090814D01*
X83401789Y-63959711D01*
X83401786Y-63959707D01*
X83290292Y-63848213D01*
X83290288Y-63848210D01*
X83159185Y-63760609D01*
X83159172Y-63760602D01*
X83013501Y-63700264D01*
X83013489Y-63700261D01*
X82858845Y-63669500D01*
X82858842Y-63669500D01*
X82701158Y-63669500D01*
X82701155Y-63669500D01*
X82546510Y-63700261D01*
X82546498Y-63700264D01*
X82400827Y-63760602D01*
X82400814Y-63760609D01*
X82269711Y-63848210D01*
X82269707Y-63848213D01*
X82158213Y-63959707D01*
X82158210Y-63959711D01*
X82070609Y-64090814D01*
X82070602Y-64090827D01*
X82010264Y-64236498D01*
X82010261Y-64236510D01*
X81979500Y-64391153D01*
X81979500Y-64391158D01*
X81979500Y-64548842D01*
X81979500Y-64548844D01*
X81979499Y-64548844D01*
X81992721Y-64615308D01*
X81986494Y-64684899D01*
X81943632Y-64740077D01*
X81877742Y-64763322D01*
X81871104Y-64763500D01*
X79177941Y-64763500D01*
X79110902Y-64743815D01*
X79065147Y-64691011D01*
X79055203Y-64621853D01*
X79084228Y-64558297D01*
X79090260Y-64551819D01*
X79161786Y-64480292D01*
X79161789Y-64480289D01*
X79249394Y-64349179D01*
X79309737Y-64203497D01*
X79340500Y-64048842D01*
X79340500Y-63891158D01*
X79340500Y-63891155D01*
X79340499Y-63891153D01*
X79316521Y-63770609D01*
X79309737Y-63736503D01*
X79298867Y-63710261D01*
X79249397Y-63590827D01*
X79249390Y-63590814D01*
X79161789Y-63459711D01*
X79161786Y-63459707D01*
X79050292Y-63348213D01*
X79050288Y-63348210D01*
X78919185Y-63260609D01*
X78919172Y-63260602D01*
X78773501Y-63200264D01*
X78773489Y-63200261D01*
X78618845Y-63169500D01*
X78618842Y-63169500D01*
X78461158Y-63169500D01*
X78461155Y-63169500D01*
X78306510Y-63200261D01*
X78306498Y-63200264D01*
X78160827Y-63260602D01*
X78160814Y-63260609D01*
X78029711Y-63348210D01*
X78029707Y-63348213D01*
X77918213Y-63459707D01*
X77918210Y-63459711D01*
X77830609Y-63590814D01*
X77830602Y-63590827D01*
X77770264Y-63736498D01*
X77770261Y-63736510D01*
X77739500Y-63891153D01*
X77739500Y-64048846D01*
X77770261Y-64203489D01*
X77770264Y-64203501D01*
X77830602Y-64349172D01*
X77830609Y-64349185D01*
X77918210Y-64480288D01*
X77918213Y-64480292D01*
X77984093Y-64546172D01*
X78017578Y-64607495D01*
X78012594Y-64677187D01*
X77970722Y-64733120D01*
X77905258Y-64757537D01*
X77895213Y-64757847D01*
X73209818Y-64712555D01*
X73142972Y-64692224D01*
X73097730Y-64638980D01*
X73088455Y-64569728D01*
X73089397Y-64564385D01*
X73090500Y-64558842D01*
X73090500Y-64401158D01*
X73090500Y-64401155D01*
X73090499Y-64401153D01*
X73059738Y-64246510D01*
X73059737Y-64246503D01*
X73041925Y-64203501D01*
X72999397Y-64100827D01*
X72999390Y-64100814D01*
X72911789Y-63969711D01*
X72911786Y-63969707D01*
X72800292Y-63858213D01*
X72800288Y-63858210D01*
X72669185Y-63770609D01*
X72669172Y-63770602D01*
X72523501Y-63710264D01*
X72523489Y-63710261D01*
X72368845Y-63679500D01*
X72368842Y-63679500D01*
X72211158Y-63679500D01*
X72211155Y-63679500D01*
X72056510Y-63710261D01*
X72056498Y-63710264D01*
X71910827Y-63770602D01*
X71910814Y-63770609D01*
X71779711Y-63858210D01*
X71779707Y-63858213D01*
X71668213Y-63969707D01*
X71668210Y-63969711D01*
X71580609Y-64100814D01*
X71580602Y-64100827D01*
X71520264Y-64246498D01*
X71520261Y-64246510D01*
X71489500Y-64401153D01*
X71489500Y-64564934D01*
X71488269Y-64564934D01*
X71476449Y-64627230D01*
X71428379Y-64677935D01*
X71364871Y-64694721D01*
X68345357Y-64665532D01*
X68278511Y-64645201D01*
X68233269Y-64591957D01*
X68223994Y-64522705D01*
X68224939Y-64517346D01*
X68250500Y-64388844D01*
X68250500Y-64231155D01*
X68250499Y-64231153D01*
X68238565Y-64171158D01*
X68219737Y-64076503D01*
X68217294Y-64070606D01*
X68159397Y-63930827D01*
X68159390Y-63930814D01*
X68071789Y-63799711D01*
X68071786Y-63799707D01*
X67960292Y-63688213D01*
X67960288Y-63688210D01*
X67829185Y-63600609D01*
X67829172Y-63600602D01*
X67683501Y-63540264D01*
X67683489Y-63540261D01*
X67528845Y-63509500D01*
X67528842Y-63509500D01*
X67371158Y-63509500D01*
X67371155Y-63509500D01*
X67216510Y-63540261D01*
X67216498Y-63540264D01*
X67070827Y-63600602D01*
X67070814Y-63600609D01*
X66939711Y-63688210D01*
X66939707Y-63688213D01*
X66828213Y-63799707D01*
X66828210Y-63799711D01*
X66740609Y-63930814D01*
X66740602Y-63930827D01*
X66680264Y-64076498D01*
X66680261Y-64076510D01*
X66649500Y-64231153D01*
X66649500Y-64388846D01*
X66671606Y-64499981D01*
X66665379Y-64569573D01*
X66622516Y-64624750D01*
X66556626Y-64647994D01*
X66548790Y-64648166D01*
X63766882Y-64621274D01*
X63700036Y-64600943D01*
X63654794Y-64547699D01*
X63644396Y-64488448D01*
X63660000Y-64270000D01*
X63658436Y-64076510D01*
X63650624Y-63109735D01*
X63634514Y-61116153D01*
X66639500Y-61116153D01*
X66639500Y-61273846D01*
X66670261Y-61428489D01*
X66670264Y-61428501D01*
X66730602Y-61574172D01*
X66730609Y-61574185D01*
X66818210Y-61705288D01*
X66818213Y-61705292D01*
X66929707Y-61816786D01*
X66929711Y-61816789D01*
X67060814Y-61904390D01*
X67060827Y-61904397D01*
X67173708Y-61951153D01*
X67206503Y-61964737D01*
X67361153Y-61995499D01*
X67361156Y-61995500D01*
X67361158Y-61995500D01*
X67518844Y-61995500D01*
X67518845Y-61995499D01*
X67673497Y-61964737D01*
X67706292Y-61951153D01*
X84639500Y-61951153D01*
X84639500Y-62108846D01*
X84670261Y-62263489D01*
X84670264Y-62263501D01*
X84730602Y-62409172D01*
X84730609Y-62409185D01*
X84818210Y-62540288D01*
X84818213Y-62540292D01*
X84929707Y-62651786D01*
X84929711Y-62651789D01*
X85060814Y-62739390D01*
X85060827Y-62739397D01*
X85206498Y-62799735D01*
X85206503Y-62799737D01*
X85361153Y-62830499D01*
X85361156Y-62830500D01*
X85361158Y-62830500D01*
X85518844Y-62830500D01*
X85518845Y-62830499D01*
X85673497Y-62799737D01*
X85819179Y-62739394D01*
X85950289Y-62651789D01*
X85996578Y-62605500D01*
X86047319Y-62554760D01*
X86108642Y-62521275D01*
X86178334Y-62526259D01*
X86222681Y-62554760D01*
X86249707Y-62581786D01*
X86249711Y-62581789D01*
X86380814Y-62669390D01*
X86380827Y-62669397D01*
X86501028Y-62719185D01*
X86526503Y-62729737D01*
X86681153Y-62760499D01*
X86681156Y-62760500D01*
X86681158Y-62760500D01*
X86838844Y-62760500D01*
X86838845Y-62760499D01*
X86993497Y-62729737D01*
X87139179Y-62669394D01*
X87270289Y-62581789D01*
X87381789Y-62470289D01*
X87469394Y-62339179D01*
X87501711Y-62261158D01*
X87501713Y-62261153D01*
X121499500Y-62261153D01*
X121499500Y-62418846D01*
X121530261Y-62573489D01*
X121530264Y-62573501D01*
X121590602Y-62719172D01*
X121590609Y-62719185D01*
X121678210Y-62850288D01*
X121678213Y-62850292D01*
X121789707Y-62961786D01*
X121789711Y-62961789D01*
X121920814Y-63049390D01*
X121920827Y-63049397D01*
X122066498Y-63109735D01*
X122066503Y-63109737D01*
X122221153Y-63140499D01*
X122221156Y-63140500D01*
X122221158Y-63140500D01*
X122378844Y-63140500D01*
X122378845Y-63140499D01*
X122533497Y-63109737D01*
X122679179Y-63049394D01*
X122810289Y-62961789D01*
X122921789Y-62850289D01*
X123009394Y-62719179D01*
X123069737Y-62573497D01*
X123100500Y-62418842D01*
X123100500Y-62261158D01*
X123100500Y-62261155D01*
X123100499Y-62261153D01*
X123089849Y-62207614D01*
X123069737Y-62106503D01*
X123041711Y-62038842D01*
X123009397Y-61960827D01*
X123009390Y-61960814D01*
X122921789Y-61829711D01*
X122921786Y-61829707D01*
X122810292Y-61718213D01*
X122810288Y-61718210D01*
X122679185Y-61630609D01*
X122679172Y-61630602D01*
X122533501Y-61570264D01*
X122533489Y-61570261D01*
X122378845Y-61539500D01*
X122378842Y-61539500D01*
X122221158Y-61539500D01*
X122221155Y-61539500D01*
X122066510Y-61570261D01*
X122066498Y-61570264D01*
X121920827Y-61630602D01*
X121920814Y-61630609D01*
X121789711Y-61718210D01*
X121789707Y-61718213D01*
X121678213Y-61829707D01*
X121678210Y-61829711D01*
X121590609Y-61960814D01*
X121590602Y-61960827D01*
X121530264Y-62106498D01*
X121530261Y-62106510D01*
X121499500Y-62261153D01*
X87501713Y-62261153D01*
X87523887Y-62207621D01*
X87523887Y-62207618D01*
X87529737Y-62193497D01*
X87560500Y-62038842D01*
X87560500Y-61881158D01*
X87560500Y-61881155D01*
X87560499Y-61881153D01*
X87547696Y-61816789D01*
X87529737Y-61726503D01*
X87501568Y-61658497D01*
X87469397Y-61580827D01*
X87469390Y-61580814D01*
X87381789Y-61449711D01*
X87381786Y-61449707D01*
X87270292Y-61338213D01*
X87270288Y-61338210D01*
X87139185Y-61250609D01*
X87139172Y-61250602D01*
X86993501Y-61190264D01*
X86993489Y-61190261D01*
X86838845Y-61159500D01*
X86838842Y-61159500D01*
X86681158Y-61159500D01*
X86681155Y-61159500D01*
X86526510Y-61190261D01*
X86526498Y-61190264D01*
X86380827Y-61250602D01*
X86380814Y-61250609D01*
X86249711Y-61338210D01*
X86249707Y-61338213D01*
X86152681Y-61435240D01*
X86091358Y-61468725D01*
X86021666Y-61463741D01*
X85977319Y-61435240D01*
X85950292Y-61408213D01*
X85950288Y-61408210D01*
X85819185Y-61320609D01*
X85819172Y-61320602D01*
X85673501Y-61260264D01*
X85673489Y-61260261D01*
X85518845Y-61229500D01*
X85518842Y-61229500D01*
X85361158Y-61229500D01*
X85361155Y-61229500D01*
X85206510Y-61260261D01*
X85206498Y-61260264D01*
X85060827Y-61320602D01*
X85060814Y-61320609D01*
X84929711Y-61408210D01*
X84929707Y-61408213D01*
X84818213Y-61519707D01*
X84818210Y-61519711D01*
X84730609Y-61650814D01*
X84730602Y-61650827D01*
X84670264Y-61796498D01*
X84670261Y-61796510D01*
X84639500Y-61951153D01*
X67706292Y-61951153D01*
X67819179Y-61904394D01*
X67880428Y-61863469D01*
X67912613Y-61841964D01*
X67931521Y-61829328D01*
X67950289Y-61816789D01*
X68061789Y-61705289D01*
X68149394Y-61574179D01*
X68209737Y-61428497D01*
X68240500Y-61273842D01*
X68240500Y-61116158D01*
X68240500Y-61116155D01*
X68240499Y-61116153D01*
X68209738Y-60961510D01*
X68209737Y-60961503D01*
X68190355Y-60914711D01*
X68149397Y-60815827D01*
X68149390Y-60815814D01*
X68061789Y-60684711D01*
X68061786Y-60684707D01*
X67950292Y-60573213D01*
X67950284Y-60573207D01*
X67942792Y-60568201D01*
X67942742Y-60568168D01*
X67819185Y-60485609D01*
X67819172Y-60485602D01*
X67784289Y-60471153D01*
X69979500Y-60471153D01*
X69979500Y-60628846D01*
X70010261Y-60783489D01*
X70010264Y-60783501D01*
X70070602Y-60929172D01*
X70070609Y-60929185D01*
X70158210Y-61060288D01*
X70158213Y-61060292D01*
X70269707Y-61171786D01*
X70269711Y-61171789D01*
X70400814Y-61259390D01*
X70400827Y-61259397D01*
X70546498Y-61319735D01*
X70546503Y-61319737D01*
X70701153Y-61350499D01*
X70701156Y-61350500D01*
X70701158Y-61350500D01*
X70858844Y-61350500D01*
X70858845Y-61350499D01*
X71013497Y-61319737D01*
X71159179Y-61259394D01*
X71290289Y-61171789D01*
X71401789Y-61060289D01*
X71489394Y-60929179D01*
X71549737Y-60783497D01*
X71580500Y-60628842D01*
X71580500Y-60471158D01*
X71580500Y-60471155D01*
X71580499Y-60471153D01*
X71568909Y-60412885D01*
X71549737Y-60316503D01*
X71549735Y-60316498D01*
X71489397Y-60170827D01*
X71489390Y-60170814D01*
X71401789Y-60039711D01*
X71401786Y-60039707D01*
X71290292Y-59928213D01*
X71290288Y-59928210D01*
X71159185Y-59840609D01*
X71159172Y-59840602D01*
X71013501Y-59780264D01*
X71013489Y-59780261D01*
X70858845Y-59749500D01*
X70858842Y-59749500D01*
X70701158Y-59749500D01*
X70701155Y-59749500D01*
X70546510Y-59780261D01*
X70546498Y-59780264D01*
X70400827Y-59840602D01*
X70400814Y-59840609D01*
X70269711Y-59928210D01*
X70269707Y-59928213D01*
X70158213Y-60039707D01*
X70158210Y-60039711D01*
X70070609Y-60170814D01*
X70070602Y-60170827D01*
X70010264Y-60316498D01*
X70010261Y-60316510D01*
X69979500Y-60471153D01*
X67784289Y-60471153D01*
X67673501Y-60425264D01*
X67673489Y-60425261D01*
X67518845Y-60394500D01*
X67518842Y-60394500D01*
X67361158Y-60394500D01*
X67361155Y-60394500D01*
X67206510Y-60425261D01*
X67206498Y-60425264D01*
X67060827Y-60485602D01*
X67060814Y-60485609D01*
X66929711Y-60573210D01*
X66929707Y-60573213D01*
X66818213Y-60684707D01*
X66818210Y-60684711D01*
X66730609Y-60815814D01*
X66730602Y-60815827D01*
X66670264Y-60961498D01*
X66670261Y-60961510D01*
X66639500Y-61116153D01*
X63634514Y-61116153D01*
X63617724Y-59038389D01*
X118274500Y-59038389D01*
X118274500Y-59161610D01*
X118298535Y-59282444D01*
X118298538Y-59282454D01*
X118345687Y-59396283D01*
X118345692Y-59396292D01*
X118414141Y-59498732D01*
X118414144Y-59498736D01*
X118501263Y-59585855D01*
X118501267Y-59585858D01*
X118603707Y-59654307D01*
X118603713Y-59654310D01*
X118603714Y-59654311D01*
X118717548Y-59701463D01*
X118838389Y-59725499D01*
X118838393Y-59725500D01*
X118838394Y-59725500D01*
X118961607Y-59725500D01*
X118961608Y-59725499D01*
X119082452Y-59701463D01*
X119196286Y-59654311D01*
X119196285Y-59654311D01*
X119201914Y-59651980D01*
X119202805Y-59654132D01*
X119261074Y-59641997D01*
X119319272Y-59664294D01*
X119320293Y-59662767D01*
X119396769Y-59713867D01*
X119396770Y-59713868D01*
X119455247Y-59725499D01*
X119455250Y-59725500D01*
X119455252Y-59725500D01*
X120344750Y-59725500D01*
X120344751Y-59725499D01*
X120359568Y-59722552D01*
X120403229Y-59713868D01*
X120403229Y-59713867D01*
X120403231Y-59713867D01*
X120469552Y-59669552D01*
X120513867Y-59603231D01*
X120513867Y-59603229D01*
X120513868Y-59603229D01*
X120525499Y-59544752D01*
X120525500Y-59544750D01*
X120525500Y-58655249D01*
X120525499Y-58655247D01*
X120513868Y-58596770D01*
X120513867Y-58596769D01*
X120469552Y-58530447D01*
X120403230Y-58486132D01*
X120403229Y-58486131D01*
X120344752Y-58474500D01*
X120344748Y-58474500D01*
X119455252Y-58474500D01*
X119455247Y-58474500D01*
X119396770Y-58486131D01*
X119396769Y-58486132D01*
X119320293Y-58537233D01*
X119317837Y-58533558D01*
X119277265Y-58555616D01*
X119207583Y-58550502D01*
X119201942Y-58547951D01*
X119201914Y-58548020D01*
X119082454Y-58498538D01*
X119082455Y-58498538D01*
X119082452Y-58498537D01*
X119082448Y-58498536D01*
X119082444Y-58498535D01*
X118961610Y-58474500D01*
X118961606Y-58474500D01*
X118838394Y-58474500D01*
X118838389Y-58474500D01*
X118717555Y-58498535D01*
X118717545Y-58498538D01*
X118603716Y-58545687D01*
X118603707Y-58545692D01*
X118501267Y-58614141D01*
X118501263Y-58614144D01*
X118414144Y-58701263D01*
X118414141Y-58701267D01*
X118345692Y-58803707D01*
X118345687Y-58803716D01*
X118298538Y-58917545D01*
X118298535Y-58917555D01*
X118274500Y-59038389D01*
X63617724Y-59038389D01*
X63596979Y-56471153D01*
X65799500Y-56471153D01*
X65799500Y-56628846D01*
X65830261Y-56783489D01*
X65830264Y-56783501D01*
X65890602Y-56929172D01*
X65890609Y-56929185D01*
X65978210Y-57060288D01*
X65978213Y-57060292D01*
X66089707Y-57171786D01*
X66089711Y-57171789D01*
X66220814Y-57259390D01*
X66220818Y-57259392D01*
X66220821Y-57259394D01*
X66319784Y-57300385D01*
X66374184Y-57344224D01*
X66396250Y-57410518D01*
X66378971Y-57478217D01*
X66375431Y-57483836D01*
X66300609Y-57595814D01*
X66300602Y-57595827D01*
X66240264Y-57741498D01*
X66240261Y-57741510D01*
X66209500Y-57896153D01*
X66209500Y-58053846D01*
X66240261Y-58208489D01*
X66240264Y-58208501D01*
X66300602Y-58354172D01*
X66300609Y-58354185D01*
X66388210Y-58485288D01*
X66388213Y-58485292D01*
X66499707Y-58596786D01*
X66499711Y-58596789D01*
X66630814Y-58684390D01*
X66630827Y-58684397D01*
X66776498Y-58744735D01*
X66776503Y-58744737D01*
X66931153Y-58775499D01*
X66931156Y-58775500D01*
X66931158Y-58775500D01*
X67088844Y-58775500D01*
X67088845Y-58775499D01*
X67243497Y-58744737D01*
X67389179Y-58684394D01*
X67520289Y-58596789D01*
X67631789Y-58485289D01*
X67719394Y-58354179D01*
X67779737Y-58208497D01*
X67810500Y-58053842D01*
X67810500Y-57896158D01*
X67810500Y-57896155D01*
X67810499Y-57896153D01*
X67779738Y-57741510D01*
X67779737Y-57741503D01*
X67779735Y-57741498D01*
X67719397Y-57595827D01*
X67719390Y-57595814D01*
X67631789Y-57464711D01*
X67631786Y-57464707D01*
X67520292Y-57353213D01*
X67520288Y-57353210D01*
X67389185Y-57265609D01*
X67389172Y-57265602D01*
X67290218Y-57224615D01*
X67235814Y-57180775D01*
X67213749Y-57114480D01*
X67231028Y-57046781D01*
X67234547Y-57041195D01*
X67309394Y-56929179D01*
X67369737Y-56783497D01*
X67400500Y-56628842D01*
X67400500Y-56471158D01*
X67400500Y-56471155D01*
X67400499Y-56471153D01*
X67369738Y-56316510D01*
X67369737Y-56316503D01*
X67354737Y-56280289D01*
X67309397Y-56170827D01*
X67309390Y-56170814D01*
X67221789Y-56039711D01*
X67221786Y-56039707D01*
X67110292Y-55928213D01*
X67110288Y-55928210D01*
X66979185Y-55840609D01*
X66979172Y-55840602D01*
X66880247Y-55799627D01*
X66833501Y-55780264D01*
X66833489Y-55780261D01*
X66678845Y-55749500D01*
X66678842Y-55749500D01*
X66521158Y-55749500D01*
X66521155Y-55749500D01*
X66366510Y-55780261D01*
X66366498Y-55780264D01*
X66220827Y-55840602D01*
X66220814Y-55840609D01*
X66089711Y-55928210D01*
X66089707Y-55928213D01*
X65978213Y-56039707D01*
X65978210Y-56039711D01*
X65890609Y-56170814D01*
X65890602Y-56170827D01*
X65830264Y-56316498D01*
X65830261Y-56316510D01*
X65799500Y-56471153D01*
X63596979Y-56471153D01*
X63590676Y-55691153D01*
X77869500Y-55691153D01*
X77869500Y-55848846D01*
X77900261Y-56003489D01*
X77900264Y-56003501D01*
X77960602Y-56149172D01*
X77960609Y-56149185D01*
X78048210Y-56280288D01*
X78048213Y-56280292D01*
X78159707Y-56391786D01*
X78159711Y-56391789D01*
X78290814Y-56479390D01*
X78290827Y-56479397D01*
X78436498Y-56539735D01*
X78436503Y-56539737D01*
X78591153Y-56570499D01*
X78591156Y-56570500D01*
X78591158Y-56570500D01*
X78748844Y-56570500D01*
X78748845Y-56570499D01*
X78903497Y-56539737D01*
X79049179Y-56479394D01*
X79180289Y-56391789D01*
X79291789Y-56280289D01*
X79379394Y-56149179D01*
X79439737Y-56003497D01*
X79470500Y-55848842D01*
X79470500Y-55691158D01*
X79470500Y-55691155D01*
X79470499Y-55691153D01*
X79439738Y-55536510D01*
X79439737Y-55536503D01*
X79424808Y-55500460D01*
X79379397Y-55390827D01*
X79379390Y-55390814D01*
X79291789Y-55259711D01*
X79291786Y-55259707D01*
X79180292Y-55148213D01*
X79180288Y-55148210D01*
X79154765Y-55131156D01*
X121724499Y-55131156D01*
X121760065Y-55309952D01*
X121760068Y-55309962D01*
X121829831Y-55478387D01*
X121829833Y-55478391D01*
X121931113Y-55629967D01*
X121931119Y-55629975D01*
X122060024Y-55758880D01*
X122060032Y-55758886D01*
X122211608Y-55860166D01*
X122211612Y-55860168D01*
X122380037Y-55929931D01*
X122380042Y-55929933D01*
X122380046Y-55929933D01*
X122380047Y-55929934D01*
X122558843Y-55965500D01*
X122558846Y-55965500D01*
X122741156Y-55965500D01*
X122861445Y-55941572D01*
X122919958Y-55929933D01*
X123088389Y-55860167D01*
X123088391Y-55860166D01*
X123207977Y-55780261D01*
X123239972Y-55758883D01*
X123368883Y-55629972D01*
X123470167Y-55478389D01*
X123539933Y-55309958D01*
X123552907Y-55244737D01*
X123575500Y-55131156D01*
X123575500Y-54948843D01*
X123539934Y-54770046D01*
X123539933Y-54770043D01*
X123539933Y-54770042D01*
X123535174Y-54758555D01*
X123527703Y-54689088D01*
X123533548Y-54667776D01*
X123569091Y-54572483D01*
X123575500Y-54512873D01*
X123575499Y-53567128D01*
X123569091Y-53507517D01*
X123566473Y-53500499D01*
X123518797Y-53372671D01*
X123518793Y-53372664D01*
X123432547Y-53257455D01*
X123432544Y-53257452D01*
X123317335Y-53171206D01*
X123317328Y-53171202D01*
X123182482Y-53120908D01*
X123182483Y-53120908D01*
X123122883Y-53114501D01*
X123122881Y-53114500D01*
X123122873Y-53114500D01*
X123122864Y-53114500D01*
X122177129Y-53114500D01*
X122177123Y-53114501D01*
X122117516Y-53120908D01*
X121982671Y-53171202D01*
X121982664Y-53171206D01*
X121867455Y-53257452D01*
X121867452Y-53257455D01*
X121781206Y-53372664D01*
X121781202Y-53372671D01*
X121730908Y-53507517D01*
X121724501Y-53567116D01*
X121724501Y-53567123D01*
X121724500Y-53567135D01*
X121724500Y-54512870D01*
X121724501Y-54512876D01*
X121730908Y-54572483D01*
X121766447Y-54667765D01*
X121771431Y-54737456D01*
X121764828Y-54758545D01*
X121760069Y-54770034D01*
X121760065Y-54770047D01*
X121724500Y-54948843D01*
X121724500Y-54948846D01*
X121724500Y-55131154D01*
X121724500Y-55131156D01*
X121724499Y-55131156D01*
X79154765Y-55131156D01*
X79049185Y-55060609D01*
X79049172Y-55060602D01*
X78903501Y-55000264D01*
X78903489Y-55000261D01*
X78748845Y-54969500D01*
X78748842Y-54969500D01*
X78591158Y-54969500D01*
X78591155Y-54969500D01*
X78436510Y-55000261D01*
X78436498Y-55000264D01*
X78290827Y-55060602D01*
X78290814Y-55060609D01*
X78159711Y-55148210D01*
X78159707Y-55148213D01*
X78048213Y-55259707D01*
X78048210Y-55259711D01*
X77960609Y-55390814D01*
X77960602Y-55390827D01*
X77900264Y-55536498D01*
X77900261Y-55536510D01*
X77869500Y-55691153D01*
X63590676Y-55691153D01*
X63574110Y-53641153D01*
X115299500Y-53641153D01*
X115299500Y-53798846D01*
X115330261Y-53953489D01*
X115330264Y-53953501D01*
X115390602Y-54099172D01*
X115390609Y-54099185D01*
X115478210Y-54230288D01*
X115478213Y-54230292D01*
X115589707Y-54341786D01*
X115589711Y-54341789D01*
X115720814Y-54429390D01*
X115720827Y-54429397D01*
X115866498Y-54489735D01*
X115866503Y-54489737D01*
X116021153Y-54520499D01*
X116021156Y-54520500D01*
X116021158Y-54520500D01*
X116178844Y-54520500D01*
X116178845Y-54520499D01*
X116333497Y-54489737D01*
X116479179Y-54429394D01*
X116610289Y-54341789D01*
X116721789Y-54230289D01*
X116809394Y-54099179D01*
X116869737Y-53953497D01*
X116900500Y-53798842D01*
X116900500Y-53641158D01*
X116900500Y-53641155D01*
X116889926Y-53587998D01*
X116889926Y-53587997D01*
X116869738Y-53486510D01*
X116869737Y-53486503D01*
X116838256Y-53410500D01*
X116809397Y-53340827D01*
X116809390Y-53340814D01*
X116721789Y-53209711D01*
X116721786Y-53209707D01*
X116610292Y-53098213D01*
X116610288Y-53098210D01*
X116479185Y-53010609D01*
X116479172Y-53010602D01*
X116333501Y-52950264D01*
X116333489Y-52950261D01*
X116178845Y-52919500D01*
X116178842Y-52919500D01*
X116021158Y-52919500D01*
X116021155Y-52919500D01*
X115866510Y-52950261D01*
X115866498Y-52950264D01*
X115720827Y-53010602D01*
X115720814Y-53010609D01*
X115589711Y-53098210D01*
X115589707Y-53098213D01*
X115478213Y-53209707D01*
X115478210Y-53209711D01*
X115390609Y-53340814D01*
X115390602Y-53340827D01*
X115330264Y-53486498D01*
X115330261Y-53486510D01*
X115299500Y-53641153D01*
X63574110Y-53641153D01*
X63573251Y-53534842D01*
X63592392Y-53467651D01*
X63644825Y-53421471D01*
X63713901Y-53410969D01*
X63744695Y-53419283D01*
X63866503Y-53469737D01*
X64021153Y-53500499D01*
X64021156Y-53500500D01*
X64021158Y-53500500D01*
X64178844Y-53500500D01*
X64178845Y-53500499D01*
X64333497Y-53469737D01*
X64479179Y-53409394D01*
X64610289Y-53321789D01*
X64721789Y-53210289D01*
X64809394Y-53079179D01*
X64839798Y-53005774D01*
X64883638Y-52951373D01*
X64949932Y-52929307D01*
X65017631Y-52946585D01*
X65057461Y-52984337D01*
X65108210Y-53060288D01*
X65108213Y-53060292D01*
X65219707Y-53171786D01*
X65219711Y-53171789D01*
X65350814Y-53259390D01*
X65350827Y-53259397D01*
X65495665Y-53319390D01*
X65496503Y-53319737D01*
X65647312Y-53349735D01*
X65651153Y-53350499D01*
X65651156Y-53350500D01*
X65651158Y-53350500D01*
X65808844Y-53350500D01*
X65808845Y-53350499D01*
X65963497Y-53319737D01*
X66109179Y-53259394D01*
X66240289Y-53171789D01*
X66351789Y-53060289D01*
X66439394Y-52929179D01*
X66499737Y-52783497D01*
X66530500Y-52628842D01*
X66530500Y-52501153D01*
X70029500Y-52501153D01*
X70029500Y-52658846D01*
X70060261Y-52813489D01*
X70060264Y-52813501D01*
X70120602Y-52959172D01*
X70120609Y-52959185D01*
X70208210Y-53090288D01*
X70208213Y-53090292D01*
X70319707Y-53201786D01*
X70319711Y-53201789D01*
X70450814Y-53289390D01*
X70450827Y-53289397D01*
X70574992Y-53340827D01*
X70596503Y-53349737D01*
X70747312Y-53379735D01*
X70751153Y-53380499D01*
X70751156Y-53380500D01*
X70751158Y-53380500D01*
X70908844Y-53380500D01*
X70908845Y-53380499D01*
X71063497Y-53349737D01*
X71209179Y-53289394D01*
X71340289Y-53201789D01*
X71451789Y-53090289D01*
X71539394Y-52959179D01*
X71599737Y-52813497D01*
X71630500Y-52658842D01*
X71630500Y-52501158D01*
X71630500Y-52501155D01*
X71630499Y-52501153D01*
X71616403Y-52430289D01*
X71599737Y-52346503D01*
X71566252Y-52265662D01*
X71539397Y-52200827D01*
X71539390Y-52200814D01*
X71451789Y-52069711D01*
X71451786Y-52069707D01*
X71340292Y-51958213D01*
X71340288Y-51958210D01*
X71209185Y-51870609D01*
X71209172Y-51870602D01*
X71063501Y-51810264D01*
X71063489Y-51810261D01*
X70908845Y-51779500D01*
X70908842Y-51779500D01*
X70751158Y-51779500D01*
X70751155Y-51779500D01*
X70596510Y-51810261D01*
X70596498Y-51810264D01*
X70450827Y-51870602D01*
X70450814Y-51870609D01*
X70319711Y-51958210D01*
X70319707Y-51958213D01*
X70208213Y-52069707D01*
X70208210Y-52069711D01*
X70120609Y-52200814D01*
X70120602Y-52200827D01*
X70060264Y-52346498D01*
X70060261Y-52346510D01*
X70029500Y-52501153D01*
X66530500Y-52501153D01*
X66530500Y-52471158D01*
X66530500Y-52471155D01*
X66530499Y-52471153D01*
X66529574Y-52466503D01*
X66499737Y-52316503D01*
X66470745Y-52246510D01*
X66439397Y-52170827D01*
X66439390Y-52170814D01*
X66351789Y-52039711D01*
X66351786Y-52039707D01*
X66240292Y-51928213D01*
X66240288Y-51928210D01*
X66109185Y-51840609D01*
X66109172Y-51840602D01*
X65963501Y-51780264D01*
X65963489Y-51780261D01*
X65808845Y-51749500D01*
X65808842Y-51749500D01*
X65651158Y-51749500D01*
X65651155Y-51749500D01*
X65496510Y-51780261D01*
X65496498Y-51780264D01*
X65350827Y-51840602D01*
X65350814Y-51840609D01*
X65219711Y-51928210D01*
X65219707Y-51928213D01*
X65108213Y-52039707D01*
X65108210Y-52039711D01*
X65020609Y-52170814D01*
X65020604Y-52170824D01*
X64990201Y-52244224D01*
X64946360Y-52298627D01*
X64880065Y-52320692D01*
X64812366Y-52303413D01*
X64772538Y-52265662D01*
X64721789Y-52189710D01*
X64610292Y-52078213D01*
X64610288Y-52078210D01*
X64479185Y-51990609D01*
X64479172Y-51990602D01*
X64333501Y-51930264D01*
X64333489Y-51930261D01*
X64178845Y-51899500D01*
X64178842Y-51899500D01*
X64021158Y-51899500D01*
X64021155Y-51899500D01*
X63866510Y-51930261D01*
X63866507Y-51930262D01*
X63866506Y-51930262D01*
X63866503Y-51930263D01*
X63799030Y-51958211D01*
X63731452Y-51986202D01*
X63661982Y-51993670D01*
X63599503Y-51962394D01*
X63563851Y-51902305D01*
X63560000Y-51871640D01*
X63560000Y-51261153D01*
X79729500Y-51261153D01*
X79729500Y-51418846D01*
X79760261Y-51573489D01*
X79760264Y-51573501D01*
X79820602Y-51719172D01*
X79820609Y-51719185D01*
X79908210Y-51850288D01*
X79908213Y-51850292D01*
X80019707Y-51961786D01*
X80019711Y-51961789D01*
X80150814Y-52049390D01*
X80150827Y-52049397D01*
X80295665Y-52109390D01*
X80296503Y-52109737D01*
X80451153Y-52140499D01*
X80451156Y-52140500D01*
X80451158Y-52140500D01*
X80608844Y-52140500D01*
X80608845Y-52140499D01*
X80763497Y-52109737D01*
X80909179Y-52049394D01*
X80950493Y-52021789D01*
X80987874Y-51996812D01*
X81054551Y-51975934D01*
X81121932Y-51994418D01*
X81168622Y-52046397D01*
X81179798Y-52115367D01*
X81171326Y-52147366D01*
X81130264Y-52246498D01*
X81130261Y-52246510D01*
X81099500Y-52401153D01*
X81099500Y-52558846D01*
X81130261Y-52713489D01*
X81130264Y-52713501D01*
X81190602Y-52859172D01*
X81190609Y-52859185D01*
X81278210Y-52990288D01*
X81278213Y-52990292D01*
X81389707Y-53101786D01*
X81389711Y-53101789D01*
X81520814Y-53189390D01*
X81520827Y-53189397D01*
X81623165Y-53231786D01*
X81666503Y-53249737D01*
X81821153Y-53280499D01*
X81821156Y-53280500D01*
X81821158Y-53280500D01*
X81978844Y-53280500D01*
X81978845Y-53280499D01*
X82133497Y-53249737D01*
X82279179Y-53189394D01*
X82410289Y-53101789D01*
X82521789Y-52990289D01*
X82523483Y-52987753D01*
X82524715Y-52986722D01*
X82525653Y-52985581D01*
X82525869Y-52985758D01*
X82577088Y-52942945D01*
X82646412Y-52934231D01*
X82709443Y-52964379D01*
X82729692Y-52987745D01*
X82798210Y-53090288D01*
X82798213Y-53090292D01*
X82909707Y-53201786D01*
X82909711Y-53201789D01*
X83040814Y-53289390D01*
X83040827Y-53289397D01*
X83164992Y-53340827D01*
X83186503Y-53349737D01*
X83337312Y-53379735D01*
X83341153Y-53380499D01*
X83341156Y-53380500D01*
X83341158Y-53380500D01*
X83498844Y-53380500D01*
X83498845Y-53380499D01*
X83653497Y-53349737D01*
X83799179Y-53289394D01*
X83930289Y-53201789D01*
X84028691Y-53103386D01*
X84090012Y-53069903D01*
X84159704Y-53074887D01*
X84214212Y-53115691D01*
X84214347Y-53115581D01*
X84214795Y-53116127D01*
X84215638Y-53116758D01*
X84217671Y-53119631D01*
X84218213Y-53120292D01*
X84329707Y-53231786D01*
X84329711Y-53231789D01*
X84460814Y-53319390D01*
X84460827Y-53319397D01*
X84589427Y-53372664D01*
X84606503Y-53379737D01*
X84755578Y-53409390D01*
X84761153Y-53410499D01*
X84761156Y-53410500D01*
X84761158Y-53410500D01*
X84918844Y-53410500D01*
X84918845Y-53410499D01*
X85073497Y-53379737D01*
X85219179Y-53319394D01*
X85350289Y-53231789D01*
X85461789Y-53120289D01*
X85549394Y-52989179D01*
X85549984Y-52987756D01*
X85574247Y-52929179D01*
X85609737Y-52843497D01*
X85640500Y-52688842D01*
X85640500Y-52531158D01*
X85640500Y-52531155D01*
X85640499Y-52531153D01*
X85628565Y-52471158D01*
X85609737Y-52376503D01*
X85586620Y-52320692D01*
X85549397Y-52230827D01*
X85549390Y-52230814D01*
X85461789Y-52099711D01*
X85461786Y-52099707D01*
X85350292Y-51988213D01*
X85350288Y-51988210D01*
X85219185Y-51900609D01*
X85219172Y-51900602D01*
X85073501Y-51840264D01*
X85073489Y-51840261D01*
X84918845Y-51809500D01*
X84918842Y-51809500D01*
X84761158Y-51809500D01*
X84761155Y-51809500D01*
X84606510Y-51840261D01*
X84606498Y-51840264D01*
X84460827Y-51900602D01*
X84460814Y-51900609D01*
X84329711Y-51988210D01*
X84231309Y-52086612D01*
X84169986Y-52120096D01*
X84100294Y-52115112D01*
X84045787Y-52074308D01*
X84045653Y-52074419D01*
X84045202Y-52073869D01*
X84044361Y-52073240D01*
X84042331Y-52070371D01*
X84041786Y-52069707D01*
X83930292Y-51958213D01*
X83930288Y-51958210D01*
X83799185Y-51870609D01*
X83799172Y-51870602D01*
X83653501Y-51810264D01*
X83653489Y-51810261D01*
X83498845Y-51779500D01*
X83498842Y-51779500D01*
X83341158Y-51779500D01*
X83341155Y-51779500D01*
X83186510Y-51810261D01*
X83186498Y-51810264D01*
X83040827Y-51870602D01*
X83040814Y-51870609D01*
X82909711Y-51958210D01*
X82909707Y-51958213D01*
X82798213Y-52069707D01*
X82798207Y-52069715D01*
X82796508Y-52072258D01*
X82795274Y-52073288D01*
X82794347Y-52074419D01*
X82794132Y-52074243D01*
X82742894Y-52117061D01*
X82673568Y-52125765D01*
X82610542Y-52095608D01*
X82590307Y-52072254D01*
X82521789Y-51969711D01*
X82521786Y-51969707D01*
X82410292Y-51858213D01*
X82410288Y-51858210D01*
X82279185Y-51770609D01*
X82279172Y-51770602D01*
X82133501Y-51710264D01*
X82133489Y-51710261D01*
X81978845Y-51679500D01*
X81978842Y-51679500D01*
X81821158Y-51679500D01*
X81821155Y-51679500D01*
X81666510Y-51710261D01*
X81666498Y-51710264D01*
X81520827Y-51770602D01*
X81520816Y-51770608D01*
X81442124Y-51823188D01*
X81375446Y-51844065D01*
X81308066Y-51825580D01*
X81261376Y-51773600D01*
X81250201Y-51704630D01*
X81258670Y-51672640D01*
X81299737Y-51573497D01*
X81330500Y-51418842D01*
X81330500Y-51261158D01*
X81330500Y-51261155D01*
X81330499Y-51261153D01*
X81322542Y-51221153D01*
X81299737Y-51106503D01*
X81283998Y-51068505D01*
X81239397Y-50960827D01*
X81239390Y-50960814D01*
X81151789Y-50829711D01*
X81151786Y-50829707D01*
X81040292Y-50718213D01*
X81015227Y-50701465D01*
X80970423Y-50647852D01*
X80961716Y-50578527D01*
X80991871Y-50515500D01*
X81015225Y-50495263D01*
X81080289Y-50451789D01*
X81191789Y-50340289D01*
X81279394Y-50209179D01*
X81339737Y-50063497D01*
X81370500Y-49908842D01*
X81370500Y-49751158D01*
X81370500Y-49751155D01*
X81370499Y-49751153D01*
X81339737Y-49596503D01*
X81295964Y-49490824D01*
X81279397Y-49450827D01*
X81279390Y-49450814D01*
X81191789Y-49319711D01*
X81191786Y-49319707D01*
X81077394Y-49205315D01*
X81043909Y-49143992D01*
X81048893Y-49074300D01*
X81090765Y-49018367D01*
X81096186Y-49014531D01*
X81098554Y-49012947D01*
X81100289Y-49011789D01*
X81211789Y-48900289D01*
X81299394Y-48769179D01*
X81359737Y-48623497D01*
X81372138Y-48561153D01*
X85619500Y-48561153D01*
X85619500Y-48718846D01*
X85650261Y-48873489D01*
X85650264Y-48873501D01*
X85710602Y-49019172D01*
X85710609Y-49019185D01*
X85798210Y-49150288D01*
X85798213Y-49150292D01*
X85825240Y-49177319D01*
X85858725Y-49238642D01*
X85853741Y-49308334D01*
X85825244Y-49352677D01*
X85818213Y-49359707D01*
X85818208Y-49359714D01*
X85730609Y-49490814D01*
X85730602Y-49490827D01*
X85670264Y-49636498D01*
X85670261Y-49636510D01*
X85639500Y-49791153D01*
X85639500Y-49948846D01*
X85670261Y-50103489D01*
X85670264Y-50103501D01*
X85730602Y-50249172D01*
X85730609Y-50249185D01*
X85818210Y-50380288D01*
X85818213Y-50380292D01*
X85929707Y-50491786D01*
X85929711Y-50491789D01*
X85989737Y-50531898D01*
X86034542Y-50585511D01*
X86043249Y-50654836D01*
X86013094Y-50717863D01*
X85989737Y-50738102D01*
X85929711Y-50778210D01*
X85929707Y-50778213D01*
X85818213Y-50889707D01*
X85818210Y-50889711D01*
X85730609Y-51020814D01*
X85730602Y-51020827D01*
X85670264Y-51166498D01*
X85670261Y-51166510D01*
X85639500Y-51321153D01*
X85639500Y-51478846D01*
X85670261Y-51633489D01*
X85670264Y-51633501D01*
X85730602Y-51779172D01*
X85730609Y-51779185D01*
X85818210Y-51910288D01*
X85818213Y-51910292D01*
X85929707Y-52021786D01*
X85929711Y-52021789D01*
X86060814Y-52109390D01*
X86060827Y-52109397D01*
X86206498Y-52169735D01*
X86206503Y-52169737D01*
X86361153Y-52200499D01*
X86361156Y-52200500D01*
X86361158Y-52200500D01*
X86518844Y-52200500D01*
X86518845Y-52200499D01*
X86673497Y-52169737D01*
X86804759Y-52115367D01*
X86819172Y-52109397D01*
X86819172Y-52109396D01*
X86819179Y-52109394D01*
X86950289Y-52021789D01*
X87061789Y-51910289D01*
X87149394Y-51779179D01*
X87209737Y-51633497D01*
X87240500Y-51478842D01*
X87240500Y-51321158D01*
X87240500Y-51321155D01*
X87224209Y-51239258D01*
X87224209Y-51239257D01*
X87220608Y-51221153D01*
X118509500Y-51221153D01*
X118509500Y-51378846D01*
X118540261Y-51533489D01*
X118540264Y-51533501D01*
X118600602Y-51679172D01*
X118600609Y-51679185D01*
X118688210Y-51810288D01*
X118688213Y-51810292D01*
X118799707Y-51921786D01*
X118799711Y-51921789D01*
X118930814Y-52009390D01*
X118930827Y-52009397D01*
X119076440Y-52069711D01*
X119076503Y-52069737D01*
X119231153Y-52100499D01*
X119231156Y-52100500D01*
X119231158Y-52100500D01*
X119388844Y-52100500D01*
X119388845Y-52100499D01*
X119543497Y-52069737D01*
X119689179Y-52009394D01*
X119820289Y-51921789D01*
X119931789Y-51810289D01*
X120019394Y-51679179D01*
X120079737Y-51533497D01*
X120110500Y-51378842D01*
X120110500Y-51221158D01*
X120110500Y-51221155D01*
X120110499Y-51221153D01*
X120087695Y-51106510D01*
X120079737Y-51066503D01*
X120055958Y-51009095D01*
X120019397Y-50920827D01*
X120019390Y-50920814D01*
X119931789Y-50789711D01*
X119931786Y-50789707D01*
X119820292Y-50678213D01*
X119820288Y-50678210D01*
X119689185Y-50590609D01*
X119689172Y-50590602D01*
X119543501Y-50530264D01*
X119543489Y-50530261D01*
X119388845Y-50499500D01*
X119388842Y-50499500D01*
X119231158Y-50499500D01*
X119231155Y-50499500D01*
X119076510Y-50530261D01*
X119076498Y-50530264D01*
X118930827Y-50590602D01*
X118930814Y-50590609D01*
X118799711Y-50678210D01*
X118799707Y-50678213D01*
X118688213Y-50789707D01*
X118688210Y-50789711D01*
X118600609Y-50920814D01*
X118600602Y-50920827D01*
X118540264Y-51066498D01*
X118540261Y-51066510D01*
X118509500Y-51221153D01*
X87220608Y-51221153D01*
X87209738Y-51166510D01*
X87209737Y-51166503D01*
X87190268Y-51119500D01*
X87149397Y-51020827D01*
X87149390Y-51020814D01*
X87061789Y-50889711D01*
X87061786Y-50889707D01*
X86950289Y-50778210D01*
X86890262Y-50738102D01*
X86845457Y-50684490D01*
X86836750Y-50615165D01*
X86866904Y-50552138D01*
X86890262Y-50531898D01*
X86950289Y-50491789D01*
X87061786Y-50380292D01*
X87061789Y-50380289D01*
X87149394Y-50249179D01*
X87209737Y-50103497D01*
X87240500Y-49948842D01*
X87240500Y-49791158D01*
X87240500Y-49791155D01*
X87240499Y-49791153D01*
X87210203Y-49638846D01*
X87209737Y-49636503D01*
X87209735Y-49636498D01*
X87162524Y-49522518D01*
X87149395Y-49490824D01*
X87149394Y-49490821D01*
X87149392Y-49490818D01*
X87149390Y-49490814D01*
X87142935Y-49481153D01*
X111149500Y-49481153D01*
X111149500Y-49638846D01*
X111180261Y-49793489D01*
X111180264Y-49793501D01*
X111240602Y-49939172D01*
X111240609Y-49939185D01*
X111328210Y-50070288D01*
X111328213Y-50070292D01*
X111439707Y-50181786D01*
X111439711Y-50181789D01*
X111570814Y-50269390D01*
X111570827Y-50269397D01*
X111716498Y-50329735D01*
X111716503Y-50329737D01*
X111871153Y-50360499D01*
X111871156Y-50360500D01*
X111871158Y-50360500D01*
X112028844Y-50360500D01*
X112028845Y-50360499D01*
X112183497Y-50329737D01*
X112329179Y-50269394D01*
X112460289Y-50181789D01*
X112571789Y-50070289D01*
X112659394Y-49939179D01*
X112719737Y-49793497D01*
X112750500Y-49638842D01*
X112750500Y-49481158D01*
X112750500Y-49481155D01*
X112750499Y-49481153D01*
X112744467Y-49450827D01*
X112719737Y-49326503D01*
X112716922Y-49319707D01*
X112659397Y-49180827D01*
X112659390Y-49180814D01*
X112571789Y-49049711D01*
X112571786Y-49049707D01*
X112460292Y-48938213D01*
X112460288Y-48938210D01*
X112329185Y-48850609D01*
X112329172Y-48850602D01*
X112183501Y-48790264D01*
X112183489Y-48790261D01*
X112028845Y-48759500D01*
X112028842Y-48759500D01*
X111871158Y-48759500D01*
X111871155Y-48759500D01*
X111716510Y-48790261D01*
X111716498Y-48790264D01*
X111570827Y-48850602D01*
X111570814Y-48850609D01*
X111439711Y-48938210D01*
X111439707Y-48938213D01*
X111328213Y-49049707D01*
X111328210Y-49049711D01*
X111240609Y-49180814D01*
X111240602Y-49180827D01*
X111180264Y-49326498D01*
X111180261Y-49326510D01*
X111149500Y-49481153D01*
X87142935Y-49481153D01*
X87061789Y-49359711D01*
X87061786Y-49359707D01*
X87034759Y-49332680D01*
X87001274Y-49271357D01*
X87006258Y-49201665D01*
X87034761Y-49157316D01*
X87041789Y-49150289D01*
X87129394Y-49019179D01*
X87189737Y-48873497D01*
X87220500Y-48718842D01*
X87220500Y-48561158D01*
X87220500Y-48561155D01*
X87220499Y-48561153D01*
X87194641Y-48431158D01*
X87189737Y-48406503D01*
X87129394Y-48260821D01*
X87129393Y-48260819D01*
X87129390Y-48260814D01*
X87102889Y-48221153D01*
X119399500Y-48221153D01*
X119399500Y-48378846D01*
X119430261Y-48533489D01*
X119430264Y-48533501D01*
X119490602Y-48679172D01*
X119490609Y-48679185D01*
X119578210Y-48810288D01*
X119578213Y-48810292D01*
X119689707Y-48921786D01*
X119689711Y-48921789D01*
X119820814Y-49009390D01*
X119820827Y-49009397D01*
X119966498Y-49069735D01*
X119966503Y-49069737D01*
X120115598Y-49099394D01*
X120121153Y-49100499D01*
X120121156Y-49100500D01*
X120121158Y-49100500D01*
X120278844Y-49100500D01*
X120278845Y-49100499D01*
X120433497Y-49069737D01*
X120579179Y-49009394D01*
X120710289Y-48921789D01*
X120821789Y-48810289D01*
X120909394Y-48679179D01*
X120969737Y-48533497D01*
X121000500Y-48378842D01*
X121000500Y-48221158D01*
X121000500Y-48221155D01*
X121000499Y-48221153D01*
X120969737Y-48066503D01*
X120949734Y-48018210D01*
X120909397Y-47920827D01*
X120909390Y-47920814D01*
X120821789Y-47789711D01*
X120821786Y-47789707D01*
X120710292Y-47678213D01*
X120710288Y-47678210D01*
X120579185Y-47590609D01*
X120579172Y-47590602D01*
X120433501Y-47530264D01*
X120433489Y-47530261D01*
X120278845Y-47499500D01*
X120278842Y-47499500D01*
X120121158Y-47499500D01*
X120121155Y-47499500D01*
X119966510Y-47530261D01*
X119966498Y-47530264D01*
X119820827Y-47590602D01*
X119820814Y-47590609D01*
X119689711Y-47678210D01*
X119689707Y-47678213D01*
X119578213Y-47789707D01*
X119578210Y-47789711D01*
X119490609Y-47920814D01*
X119490602Y-47920827D01*
X119430264Y-48066498D01*
X119430261Y-48066510D01*
X119399500Y-48221153D01*
X87102889Y-48221153D01*
X87041789Y-48129711D01*
X87041786Y-48129707D01*
X86930292Y-48018213D01*
X86930288Y-48018210D01*
X86799185Y-47930609D01*
X86799172Y-47930602D01*
X86653501Y-47870264D01*
X86653489Y-47870261D01*
X86498845Y-47839500D01*
X86498842Y-47839500D01*
X86341158Y-47839500D01*
X86341155Y-47839500D01*
X86186510Y-47870261D01*
X86186498Y-47870264D01*
X86040827Y-47930602D01*
X86040814Y-47930609D01*
X85909711Y-48018210D01*
X85909707Y-48018213D01*
X85798213Y-48129707D01*
X85798210Y-48129711D01*
X85710609Y-48260814D01*
X85710602Y-48260827D01*
X85650264Y-48406498D01*
X85650261Y-48406510D01*
X85619500Y-48561153D01*
X81372138Y-48561153D01*
X81373261Y-48555506D01*
X81378161Y-48530875D01*
X81378161Y-48530874D01*
X81390500Y-48468844D01*
X81390500Y-48311155D01*
X81390499Y-48311153D01*
X81359738Y-48156510D01*
X81359737Y-48156503D01*
X81349096Y-48130814D01*
X81299397Y-48010827D01*
X81299390Y-48010814D01*
X81211789Y-47879711D01*
X81211786Y-47879707D01*
X81100292Y-47768213D01*
X81100288Y-47768210D01*
X80969185Y-47680609D01*
X80969172Y-47680602D01*
X80823501Y-47620264D01*
X80823489Y-47620261D01*
X80668845Y-47589500D01*
X80668842Y-47589500D01*
X80511158Y-47589500D01*
X80511155Y-47589500D01*
X80356510Y-47620261D01*
X80356498Y-47620264D01*
X80210827Y-47680602D01*
X80210814Y-47680609D01*
X80079711Y-47768210D01*
X80079707Y-47768213D01*
X79968213Y-47879707D01*
X79968210Y-47879711D01*
X79880609Y-48010814D01*
X79880602Y-48010827D01*
X79820264Y-48156498D01*
X79820261Y-48156510D01*
X79789500Y-48311153D01*
X79789500Y-48468846D01*
X79820261Y-48623489D01*
X79820264Y-48623501D01*
X79880602Y-48769172D01*
X79880609Y-48769185D01*
X79968210Y-48900288D01*
X79968213Y-48900292D01*
X80082605Y-49014684D01*
X80116090Y-49076007D01*
X80111106Y-49145699D01*
X80069234Y-49201632D01*
X80063826Y-49205460D01*
X80059714Y-49208208D01*
X80059707Y-49208213D01*
X79948213Y-49319707D01*
X79948210Y-49319711D01*
X79860609Y-49450814D01*
X79860602Y-49450827D01*
X79800264Y-49596498D01*
X79800261Y-49596510D01*
X79769500Y-49751153D01*
X79769500Y-49908846D01*
X79800261Y-50063489D01*
X79800264Y-50063501D01*
X79860602Y-50209172D01*
X79860609Y-50209185D01*
X79948210Y-50340288D01*
X79948213Y-50340292D01*
X80059707Y-50451786D01*
X80059711Y-50451789D01*
X80084771Y-50468534D01*
X80129576Y-50522146D01*
X80138283Y-50591471D01*
X80108128Y-50654499D01*
X80084772Y-50674738D01*
X80019707Y-50718213D01*
X79908213Y-50829707D01*
X79908210Y-50829711D01*
X79820609Y-50960814D01*
X79820602Y-50960827D01*
X79760264Y-51106498D01*
X79760261Y-51106510D01*
X79729500Y-51261153D01*
X63560000Y-51261153D01*
X63560000Y-50995000D01*
X62440932Y-50999914D01*
X62373807Y-50980524D01*
X62371497Y-50979017D01*
X62305492Y-50934914D01*
X62168917Y-50878343D01*
X62168907Y-50878340D01*
X62023920Y-50849500D01*
X62023918Y-50849500D01*
X61876082Y-50849500D01*
X61876080Y-50849500D01*
X61731092Y-50878340D01*
X61731086Y-50878342D01*
X61594508Y-50934914D01*
X61594498Y-50934920D01*
X61522007Y-50983355D01*
X61504215Y-50988925D01*
X61488577Y-50999073D01*
X61456711Y-51003798D01*
X61455329Y-51004231D01*
X61453664Y-51004250D01*
X61348118Y-51004714D01*
X61280993Y-50985324D01*
X61278683Y-50983818D01*
X61219847Y-50944506D01*
X61205495Y-50934916D01*
X61205492Y-50934914D01*
X61205491Y-50934914D01*
X61068917Y-50878343D01*
X61068907Y-50878340D01*
X60923920Y-50849500D01*
X60923918Y-50849500D01*
X60776082Y-50849500D01*
X60776080Y-50849500D01*
X60631092Y-50878340D01*
X60631086Y-50878342D01*
X60494508Y-50934914D01*
X60494503Y-50934917D01*
X60414729Y-50988219D01*
X60348051Y-51009095D01*
X60346385Y-51009114D01*
X46825045Y-51068505D01*
X46757919Y-51049115D01*
X46711933Y-50996512D01*
X46700500Y-50944506D01*
X46700500Y-48431153D01*
X49089500Y-48431153D01*
X49089500Y-48588846D01*
X49120261Y-48743489D01*
X49120264Y-48743501D01*
X49180602Y-48889172D01*
X49180609Y-48889185D01*
X49268210Y-49020288D01*
X49268213Y-49020292D01*
X49379707Y-49131786D01*
X49379711Y-49131789D01*
X49510814Y-49219390D01*
X49510827Y-49219397D01*
X49656498Y-49279735D01*
X49656503Y-49279737D01*
X49800269Y-49308334D01*
X49811153Y-49310499D01*
X49811156Y-49310500D01*
X49811158Y-49310500D01*
X49968844Y-49310500D01*
X49968845Y-49310499D01*
X50123497Y-49279737D01*
X50269179Y-49219394D01*
X50400289Y-49131789D01*
X50511789Y-49020289D01*
X50599394Y-48889179D01*
X50659737Y-48743497D01*
X50690500Y-48588842D01*
X50690500Y-48431158D01*
X50690500Y-48431155D01*
X50690499Y-48431153D01*
X50680094Y-48378844D01*
X50659737Y-48276503D01*
X50653241Y-48260819D01*
X50599397Y-48130827D01*
X50599390Y-48130814D01*
X50511789Y-47999711D01*
X50511786Y-47999707D01*
X50400292Y-47888213D01*
X50400288Y-47888210D01*
X50269185Y-47800609D01*
X50269172Y-47800602D01*
X50123501Y-47740264D01*
X50123489Y-47740261D01*
X49968845Y-47709500D01*
X49968842Y-47709500D01*
X49811158Y-47709500D01*
X49811155Y-47709500D01*
X49656510Y-47740261D01*
X49656498Y-47740264D01*
X49510827Y-47800602D01*
X49510814Y-47800609D01*
X49379711Y-47888210D01*
X49379707Y-47888213D01*
X49268213Y-47999707D01*
X49268210Y-47999711D01*
X49180609Y-48130814D01*
X49180602Y-48130827D01*
X49120264Y-48276498D01*
X49120261Y-48276510D01*
X49089500Y-48431153D01*
X46700500Y-48431153D01*
X46700500Y-46271153D01*
X55039500Y-46271153D01*
X55039500Y-46428846D01*
X55070261Y-46583489D01*
X55070264Y-46583501D01*
X55130602Y-46729172D01*
X55130609Y-46729185D01*
X55218210Y-46860288D01*
X55218213Y-46860292D01*
X55329707Y-46971786D01*
X55329711Y-46971789D01*
X55460814Y-47059390D01*
X55460827Y-47059397D01*
X55606498Y-47119735D01*
X55606503Y-47119737D01*
X55761153Y-47150499D01*
X55761156Y-47150500D01*
X55761158Y-47150500D01*
X55918844Y-47150500D01*
X55918845Y-47150499D01*
X56073497Y-47119737D01*
X56219179Y-47059394D01*
X56350289Y-46971789D01*
X56461789Y-46860289D01*
X56467893Y-46851153D01*
X81189500Y-46851153D01*
X81189500Y-47008846D01*
X81220261Y-47163489D01*
X81220264Y-47163501D01*
X81280602Y-47309172D01*
X81280609Y-47309185D01*
X81368210Y-47440288D01*
X81368213Y-47440292D01*
X81479707Y-47551786D01*
X81479711Y-47551789D01*
X81610814Y-47639390D01*
X81610827Y-47639397D01*
X81756498Y-47699735D01*
X81756503Y-47699737D01*
X81911153Y-47730499D01*
X81911156Y-47730500D01*
X81911158Y-47730500D01*
X82068844Y-47730500D01*
X82068845Y-47730499D01*
X82223497Y-47699737D01*
X82369179Y-47639394D01*
X82500289Y-47551789D01*
X82611789Y-47440289D01*
X82661918Y-47365264D01*
X82715528Y-47320462D01*
X82784853Y-47311753D01*
X82847881Y-47341908D01*
X82877588Y-47383887D01*
X82877736Y-47383809D01*
X82878361Y-47384979D01*
X82879577Y-47386697D01*
X82880602Y-47389171D01*
X82880609Y-47389185D01*
X82968210Y-47520288D01*
X82968213Y-47520292D01*
X83079707Y-47631786D01*
X83079711Y-47631789D01*
X83210814Y-47719390D01*
X83210827Y-47719397D01*
X83328681Y-47768213D01*
X83356503Y-47779737D01*
X83511153Y-47810499D01*
X83511156Y-47810500D01*
X83511158Y-47810500D01*
X83668844Y-47810500D01*
X83668845Y-47810499D01*
X83823497Y-47779737D01*
X83969179Y-47719394D01*
X84100289Y-47631789D01*
X84132319Y-47599758D01*
X84193638Y-47566275D01*
X84263329Y-47571257D01*
X84307680Y-47599759D01*
X84409707Y-47701786D01*
X84409711Y-47701789D01*
X84540814Y-47789390D01*
X84540827Y-47789397D01*
X84686498Y-47849735D01*
X84686503Y-47849737D01*
X84841153Y-47880499D01*
X84841156Y-47880500D01*
X84841158Y-47880500D01*
X84998844Y-47880500D01*
X84998845Y-47880499D01*
X85153497Y-47849737D01*
X85298414Y-47789711D01*
X85299172Y-47789397D01*
X85299172Y-47789396D01*
X85299179Y-47789394D01*
X85430289Y-47701789D01*
X85541789Y-47590289D01*
X85629394Y-47459179D01*
X85689737Y-47313497D01*
X85720500Y-47158842D01*
X85720500Y-47001158D01*
X85720500Y-47001155D01*
X85720499Y-47001153D01*
X85714658Y-46971789D01*
X85689737Y-46846503D01*
X85689735Y-46846498D01*
X85629397Y-46700827D01*
X85629390Y-46700814D01*
X85541789Y-46569711D01*
X85541786Y-46569707D01*
X85430292Y-46458213D01*
X85430288Y-46458210D01*
X85329931Y-46391153D01*
X115529500Y-46391153D01*
X115529500Y-46548846D01*
X115560261Y-46703489D01*
X115560264Y-46703501D01*
X115620602Y-46849172D01*
X115620609Y-46849185D01*
X115708210Y-46980288D01*
X115708213Y-46980292D01*
X115819707Y-47091786D01*
X115819711Y-47091789D01*
X115950814Y-47179390D01*
X115950827Y-47179397D01*
X116096498Y-47239735D01*
X116096503Y-47239737D01*
X116251153Y-47270499D01*
X116251156Y-47270500D01*
X116251158Y-47270500D01*
X116408844Y-47270500D01*
X116408845Y-47270499D01*
X116563497Y-47239737D01*
X116709179Y-47179394D01*
X116840289Y-47091789D01*
X116951789Y-46980289D01*
X117039394Y-46849179D01*
X117040503Y-46846503D01*
X117069633Y-46776175D01*
X117099737Y-46703497D01*
X117130500Y-46548842D01*
X117130500Y-46391158D01*
X117130500Y-46391155D01*
X117130499Y-46391153D01*
X117129914Y-46388210D01*
X117099737Y-46236503D01*
X117068157Y-46160261D01*
X117039397Y-46090827D01*
X117039390Y-46090814D01*
X116951789Y-45959711D01*
X116951786Y-45959707D01*
X116840292Y-45848213D01*
X116840288Y-45848210D01*
X116709185Y-45760609D01*
X116709172Y-45760602D01*
X116563501Y-45700264D01*
X116563489Y-45700261D01*
X116408845Y-45669500D01*
X116408842Y-45669500D01*
X116251158Y-45669500D01*
X116251155Y-45669500D01*
X116096510Y-45700261D01*
X116096498Y-45700264D01*
X115950827Y-45760602D01*
X115950814Y-45760609D01*
X115819711Y-45848210D01*
X115819707Y-45848213D01*
X115708213Y-45959707D01*
X115708210Y-45959711D01*
X115620609Y-46090814D01*
X115620602Y-46090827D01*
X115560264Y-46236498D01*
X115560261Y-46236510D01*
X115529500Y-46391153D01*
X85329931Y-46391153D01*
X85299185Y-46370609D01*
X85299172Y-46370602D01*
X85153501Y-46310264D01*
X85153489Y-46310261D01*
X84998845Y-46279500D01*
X84998842Y-46279500D01*
X84841158Y-46279500D01*
X84841155Y-46279500D01*
X84686510Y-46310261D01*
X84686498Y-46310264D01*
X84540827Y-46370602D01*
X84540814Y-46370609D01*
X84409711Y-46458210D01*
X84409707Y-46458213D01*
X84377681Y-46490240D01*
X84316358Y-46523725D01*
X84246666Y-46518741D01*
X84202319Y-46490240D01*
X84100292Y-46388213D01*
X84100288Y-46388210D01*
X83969185Y-46300609D01*
X83969172Y-46300602D01*
X83823501Y-46240264D01*
X83823489Y-46240261D01*
X83668845Y-46209500D01*
X83668842Y-46209500D01*
X83511158Y-46209500D01*
X83511155Y-46209500D01*
X83356510Y-46240261D01*
X83356498Y-46240264D01*
X83210827Y-46300602D01*
X83210814Y-46300609D01*
X83079711Y-46388210D01*
X83079707Y-46388213D01*
X82968213Y-46499707D01*
X82968210Y-46499711D01*
X82918082Y-46574733D01*
X82864469Y-46619538D01*
X82795144Y-46628245D01*
X82732117Y-46598090D01*
X82702412Y-46556111D01*
X82702264Y-46556191D01*
X82701633Y-46555011D01*
X82700419Y-46553295D01*
X82699395Y-46550824D01*
X82699394Y-46550821D01*
X82699392Y-46550818D01*
X82699390Y-46550814D01*
X82611789Y-46419711D01*
X82611786Y-46419707D01*
X82500292Y-46308213D01*
X82500288Y-46308210D01*
X82369185Y-46220609D01*
X82369172Y-46220602D01*
X82223501Y-46160264D01*
X82223489Y-46160261D01*
X82068845Y-46129500D01*
X82068842Y-46129500D01*
X81911158Y-46129500D01*
X81911155Y-46129500D01*
X81756510Y-46160261D01*
X81756498Y-46160264D01*
X81610827Y-46220602D01*
X81610814Y-46220609D01*
X81479711Y-46308210D01*
X81479707Y-46308213D01*
X81368213Y-46419707D01*
X81368210Y-46419711D01*
X81280609Y-46550814D01*
X81280602Y-46550827D01*
X81220264Y-46696498D01*
X81220261Y-46696510D01*
X81189500Y-46851153D01*
X56467893Y-46851153D01*
X56488108Y-46820898D01*
X56517993Y-46776175D01*
X56549390Y-46729185D01*
X56549390Y-46729184D01*
X56549394Y-46729179D01*
X56609737Y-46583497D01*
X56640500Y-46428842D01*
X56640500Y-46271158D01*
X56640500Y-46271155D01*
X56640499Y-46271153D01*
X56634355Y-46240264D01*
X56609737Y-46116503D01*
X56599096Y-46090814D01*
X56549397Y-45970827D01*
X56549390Y-45970814D01*
X56461789Y-45839711D01*
X56461786Y-45839707D01*
X56350292Y-45728213D01*
X56350288Y-45728210D01*
X56219185Y-45640609D01*
X56219172Y-45640602D01*
X56073501Y-45580264D01*
X56073489Y-45580261D01*
X55918845Y-45549500D01*
X55918842Y-45549500D01*
X55761158Y-45549500D01*
X55761155Y-45549500D01*
X55606510Y-45580261D01*
X55606498Y-45580264D01*
X55460827Y-45640602D01*
X55460814Y-45640609D01*
X55329711Y-45728210D01*
X55329707Y-45728213D01*
X55218213Y-45839707D01*
X55218210Y-45839711D01*
X55130609Y-45970814D01*
X55130602Y-45970827D01*
X55070264Y-46116498D01*
X55070261Y-46116510D01*
X55039500Y-46271153D01*
X46700500Y-46271153D01*
X46700500Y-44891153D01*
X60549500Y-44891153D01*
X60549500Y-45048846D01*
X60580261Y-45203489D01*
X60580264Y-45203501D01*
X60640602Y-45349172D01*
X60640609Y-45349185D01*
X60728210Y-45480288D01*
X60728213Y-45480292D01*
X60839707Y-45591786D01*
X60839711Y-45591789D01*
X60970814Y-45679390D01*
X60970827Y-45679397D01*
X61088681Y-45728213D01*
X61116503Y-45739737D01*
X61271153Y-45770499D01*
X61271156Y-45770500D01*
X61271158Y-45770500D01*
X61428844Y-45770500D01*
X61428845Y-45770499D01*
X61583497Y-45739737D01*
X61729179Y-45679394D01*
X61860289Y-45591789D01*
X61971789Y-45480289D01*
X62059394Y-45349179D01*
X62119737Y-45203497D01*
X62150500Y-45048842D01*
X62150500Y-44891158D01*
X62150500Y-44891155D01*
X62150499Y-44891153D01*
X62119738Y-44736510D01*
X62119737Y-44736503D01*
X62119735Y-44736498D01*
X62059397Y-44590827D01*
X62059390Y-44590814D01*
X61971789Y-44459711D01*
X61971786Y-44459707D01*
X61860292Y-44348213D01*
X61860288Y-44348210D01*
X61729185Y-44260609D01*
X61729172Y-44260602D01*
X61583501Y-44200264D01*
X61583489Y-44200261D01*
X61428845Y-44169500D01*
X61428842Y-44169500D01*
X61271158Y-44169500D01*
X61271155Y-44169500D01*
X61116510Y-44200261D01*
X61116498Y-44200264D01*
X60970827Y-44260602D01*
X60970814Y-44260609D01*
X60839711Y-44348210D01*
X60839707Y-44348213D01*
X60728213Y-44459707D01*
X60728210Y-44459711D01*
X60640609Y-44590814D01*
X60640602Y-44590827D01*
X60580264Y-44736498D01*
X60580261Y-44736510D01*
X60549500Y-44891153D01*
X46700500Y-44891153D01*
X46700500Y-42003246D01*
X46700670Y-41996757D01*
X46706483Y-41885837D01*
X48549500Y-41885837D01*
X48549500Y-42114162D01*
X48585215Y-42339660D01*
X48655770Y-42556803D01*
X48723785Y-42690288D01*
X48759421Y-42760228D01*
X48893621Y-42944937D01*
X49055063Y-43106379D01*
X49239772Y-43240579D01*
X49335884Y-43289550D01*
X49443196Y-43344229D01*
X49443198Y-43344229D01*
X49443201Y-43344231D01*
X49559592Y-43382049D01*
X49660339Y-43414784D01*
X49885838Y-43450500D01*
X49885843Y-43450500D01*
X50114162Y-43450500D01*
X50339660Y-43414784D01*
X50556799Y-43344231D01*
X50760228Y-43240579D01*
X50944937Y-43106379D01*
X51106379Y-42944937D01*
X51240579Y-42760228D01*
X51344231Y-42556799D01*
X51414784Y-42339660D01*
X51427584Y-42258844D01*
X51450500Y-42114162D01*
X51450500Y-41885837D01*
X51414784Y-41660339D01*
X51353134Y-41470602D01*
X51344231Y-41443201D01*
X51344229Y-41443198D01*
X51344229Y-41443196D01*
X51251579Y-41261361D01*
X51241285Y-41241158D01*
X51240579Y-41239772D01*
X51219786Y-41211153D01*
X67129500Y-41211153D01*
X67129500Y-41368846D01*
X67160261Y-41523489D01*
X67160264Y-41523501D01*
X67220602Y-41669172D01*
X67220609Y-41669185D01*
X67308210Y-41800288D01*
X67308213Y-41800292D01*
X67419707Y-41911786D01*
X67419711Y-41911789D01*
X67550814Y-41999390D01*
X67550827Y-41999397D01*
X67675779Y-42051153D01*
X67696503Y-42059737D01*
X67847312Y-42089735D01*
X67851153Y-42090499D01*
X67851156Y-42090500D01*
X67851158Y-42090500D01*
X68008844Y-42090500D01*
X68008845Y-42090499D01*
X68163497Y-42059737D01*
X68184220Y-42051153D01*
X77389500Y-42051153D01*
X77389500Y-42208846D01*
X77420261Y-42363489D01*
X77420264Y-42363501D01*
X77480602Y-42509172D01*
X77480609Y-42509185D01*
X77568210Y-42640288D01*
X77568213Y-42640292D01*
X77679707Y-42751786D01*
X77679711Y-42751789D01*
X77810814Y-42839390D01*
X77810827Y-42839397D01*
X77956498Y-42899735D01*
X77956503Y-42899737D01*
X78111153Y-42930499D01*
X78111156Y-42930500D01*
X78111158Y-42930500D01*
X78268844Y-42930500D01*
X78268845Y-42930499D01*
X78423497Y-42899737D01*
X78569179Y-42839394D01*
X78700289Y-42751789D01*
X78811789Y-42640289D01*
X78899394Y-42509179D01*
X78959737Y-42363497D01*
X78990500Y-42208842D01*
X78990500Y-42101153D01*
X90729500Y-42101153D01*
X90729500Y-42258846D01*
X90760261Y-42413489D01*
X90760264Y-42413501D01*
X90820602Y-42559172D01*
X90820609Y-42559185D01*
X90908210Y-42690288D01*
X90908213Y-42690292D01*
X91019707Y-42801786D01*
X91019711Y-42801789D01*
X91150814Y-42889390D01*
X91150827Y-42889397D01*
X91284917Y-42944938D01*
X91296503Y-42949737D01*
X91451153Y-42980499D01*
X91451156Y-42980500D01*
X91451158Y-42980500D01*
X91608844Y-42980500D01*
X91608845Y-42980499D01*
X91763497Y-42949737D01*
X91909179Y-42889394D01*
X92040289Y-42801789D01*
X92151789Y-42690289D01*
X92239394Y-42559179D01*
X92299737Y-42413497D01*
X92330500Y-42258842D01*
X92330500Y-42101158D01*
X92330500Y-42101155D01*
X92330499Y-42101153D01*
X92320553Y-42051153D01*
X92299737Y-41946503D01*
X92284366Y-41909394D01*
X92239397Y-41800827D01*
X92239390Y-41800814D01*
X92151789Y-41669711D01*
X92151786Y-41669707D01*
X92040292Y-41558213D01*
X92040288Y-41558210D01*
X91909185Y-41470609D01*
X91909172Y-41470602D01*
X91763501Y-41410264D01*
X91763489Y-41410261D01*
X91608845Y-41379500D01*
X91608842Y-41379500D01*
X91451158Y-41379500D01*
X91451155Y-41379500D01*
X91296510Y-41410261D01*
X91296498Y-41410264D01*
X91150827Y-41470602D01*
X91150814Y-41470609D01*
X91019711Y-41558210D01*
X91019707Y-41558213D01*
X90908213Y-41669707D01*
X90908210Y-41669711D01*
X90820609Y-41800814D01*
X90820602Y-41800827D01*
X90760264Y-41946498D01*
X90760261Y-41946510D01*
X90729500Y-42101153D01*
X78990500Y-42101153D01*
X78990500Y-42051158D01*
X78990500Y-42051155D01*
X78990499Y-42051153D01*
X78969684Y-41946510D01*
X78959737Y-41896503D01*
X78932312Y-41830292D01*
X78899397Y-41750827D01*
X78899390Y-41750814D01*
X78811789Y-41619711D01*
X78811786Y-41619707D01*
X78700292Y-41508213D01*
X78700288Y-41508210D01*
X78569185Y-41420609D01*
X78569172Y-41420602D01*
X78423501Y-41360264D01*
X78423489Y-41360261D01*
X78268845Y-41329500D01*
X78268842Y-41329500D01*
X78111158Y-41329500D01*
X78111155Y-41329500D01*
X77956510Y-41360261D01*
X77956498Y-41360264D01*
X77810827Y-41420602D01*
X77810814Y-41420609D01*
X77679711Y-41508210D01*
X77679707Y-41508213D01*
X77568213Y-41619707D01*
X77568210Y-41619711D01*
X77480609Y-41750814D01*
X77480602Y-41750827D01*
X77420264Y-41896498D01*
X77420261Y-41896510D01*
X77389500Y-42051153D01*
X68184220Y-42051153D01*
X68276166Y-42013067D01*
X68309172Y-41999397D01*
X68309172Y-41999396D01*
X68309179Y-41999394D01*
X68313127Y-41996756D01*
X68395130Y-41941964D01*
X68418020Y-41926668D01*
X68440289Y-41911789D01*
X68551789Y-41800289D01*
X68639394Y-41669179D01*
X68699737Y-41523497D01*
X68730500Y-41368842D01*
X68730500Y-41211158D01*
X68730500Y-41211155D01*
X68730499Y-41211153D01*
X68716199Y-41139257D01*
X68712598Y-41121153D01*
X97149500Y-41121153D01*
X97149500Y-41278846D01*
X97180261Y-41433489D01*
X97180264Y-41433501D01*
X97240602Y-41579172D01*
X97240609Y-41579185D01*
X97328210Y-41710288D01*
X97328213Y-41710292D01*
X97439707Y-41821786D01*
X97439711Y-41821789D01*
X97570814Y-41909390D01*
X97570827Y-41909397D01*
X97716498Y-41969735D01*
X97716503Y-41969737D01*
X97852336Y-41996756D01*
X97871153Y-42000499D01*
X97871156Y-42000500D01*
X97871158Y-42000500D01*
X98028844Y-42000500D01*
X98028845Y-42000499D01*
X98183497Y-41969737D01*
X98329179Y-41909394D01*
X98460289Y-41821789D01*
X98571789Y-41710289D01*
X98659394Y-41579179D01*
X98719737Y-41433497D01*
X98750500Y-41278842D01*
X98750500Y-41241153D01*
X112049500Y-41241153D01*
X112049500Y-41398846D01*
X112080261Y-41553489D01*
X112080264Y-41553501D01*
X112140602Y-41699172D01*
X112140609Y-41699185D01*
X112228210Y-41830288D01*
X112228213Y-41830292D01*
X112339707Y-41941786D01*
X112339711Y-41941789D01*
X112470814Y-42029390D01*
X112470827Y-42029397D01*
X112544078Y-42059738D01*
X112616503Y-42089737D01*
X112736339Y-42113574D01*
X112771153Y-42120499D01*
X112771156Y-42120500D01*
X112771158Y-42120500D01*
X112928844Y-42120500D01*
X112928845Y-42120499D01*
X113083497Y-42089737D01*
X113229179Y-42029394D01*
X113360289Y-41941789D01*
X113416241Y-41885837D01*
X118549500Y-41885837D01*
X118549500Y-42114162D01*
X118585215Y-42339660D01*
X118655770Y-42556803D01*
X118723785Y-42690288D01*
X118759421Y-42760228D01*
X118893621Y-42944937D01*
X119055063Y-43106379D01*
X119239772Y-43240579D01*
X119335884Y-43289550D01*
X119443196Y-43344229D01*
X119443198Y-43344229D01*
X119443201Y-43344231D01*
X119559592Y-43382049D01*
X119660339Y-43414784D01*
X119885838Y-43450500D01*
X119885843Y-43450500D01*
X120114162Y-43450500D01*
X120339660Y-43414784D01*
X120556799Y-43344231D01*
X120760228Y-43240579D01*
X120944937Y-43106379D01*
X121106379Y-42944937D01*
X121240579Y-42760228D01*
X121344231Y-42556799D01*
X121414784Y-42339660D01*
X121427584Y-42258844D01*
X121450500Y-42114162D01*
X121450500Y-41885837D01*
X121414784Y-41660339D01*
X121353134Y-41470602D01*
X121344231Y-41443201D01*
X121344229Y-41443198D01*
X121344229Y-41443196D01*
X121241285Y-41241158D01*
X121240579Y-41239772D01*
X121106379Y-41055063D01*
X120944937Y-40893621D01*
X120760228Y-40759421D01*
X120745342Y-40751836D01*
X120556803Y-40655770D01*
X120339660Y-40585215D01*
X120114162Y-40549500D01*
X120114157Y-40549500D01*
X119885843Y-40549500D01*
X119885838Y-40549500D01*
X119660339Y-40585215D01*
X119443196Y-40655770D01*
X119239771Y-40759421D01*
X119055061Y-40893622D01*
X118893622Y-41055061D01*
X118759421Y-41239771D01*
X118655770Y-41443196D01*
X118585215Y-41660339D01*
X118549500Y-41885837D01*
X113416241Y-41885837D01*
X113471789Y-41830289D01*
X113559394Y-41699179D01*
X113619737Y-41553497D01*
X113650500Y-41398842D01*
X113650500Y-41241158D01*
X113650500Y-41241155D01*
X113650499Y-41241153D01*
X113626630Y-41121158D01*
X113619737Y-41086503D01*
X113606714Y-41055063D01*
X113559397Y-40940827D01*
X113559390Y-40940814D01*
X113471789Y-40809711D01*
X113471786Y-40809707D01*
X113360292Y-40698213D01*
X113360288Y-40698210D01*
X113229185Y-40610609D01*
X113229172Y-40610602D01*
X113083501Y-40550264D01*
X113083489Y-40550261D01*
X112928845Y-40519500D01*
X112928842Y-40519500D01*
X112771158Y-40519500D01*
X112771155Y-40519500D01*
X112616510Y-40550261D01*
X112616498Y-40550264D01*
X112470827Y-40610602D01*
X112470814Y-40610609D01*
X112339711Y-40698210D01*
X112339707Y-40698213D01*
X112228213Y-40809707D01*
X112228210Y-40809711D01*
X112140609Y-40940814D01*
X112140602Y-40940827D01*
X112080264Y-41086498D01*
X112080261Y-41086510D01*
X112049500Y-41241153D01*
X98750500Y-41241153D01*
X98750500Y-41121158D01*
X98750500Y-41121155D01*
X98750499Y-41121153D01*
X98743606Y-41086498D01*
X98719737Y-40966503D01*
X98709096Y-40940814D01*
X98659397Y-40820827D01*
X98659390Y-40820814D01*
X98571789Y-40689711D01*
X98571786Y-40689707D01*
X98460292Y-40578213D01*
X98460288Y-40578210D01*
X98329185Y-40490609D01*
X98329172Y-40490602D01*
X98183501Y-40430264D01*
X98183489Y-40430261D01*
X98028845Y-40399500D01*
X98028842Y-40399500D01*
X97871158Y-40399500D01*
X97871155Y-40399500D01*
X97716510Y-40430261D01*
X97716498Y-40430264D01*
X97570827Y-40490602D01*
X97570814Y-40490609D01*
X97439711Y-40578210D01*
X97439707Y-40578213D01*
X97328213Y-40689707D01*
X97328210Y-40689711D01*
X97240609Y-40820814D01*
X97240602Y-40820827D01*
X97180264Y-40966498D01*
X97180261Y-40966510D01*
X97149500Y-41121153D01*
X68712598Y-41121153D01*
X68699738Y-41056508D01*
X68699737Y-41056507D01*
X68699737Y-41056503D01*
X68651823Y-40940827D01*
X68639397Y-40910827D01*
X68639390Y-40910814D01*
X68551789Y-40779711D01*
X68551786Y-40779707D01*
X68440292Y-40668213D01*
X68440288Y-40668210D01*
X68309185Y-40580609D01*
X68309172Y-40580602D01*
X68163501Y-40520264D01*
X68163489Y-40520261D01*
X68008845Y-40489500D01*
X68008842Y-40489500D01*
X67851158Y-40489500D01*
X67851155Y-40489500D01*
X67696510Y-40520261D01*
X67696498Y-40520264D01*
X67550827Y-40580602D01*
X67550814Y-40580609D01*
X67419711Y-40668210D01*
X67419707Y-40668213D01*
X67308213Y-40779707D01*
X67308210Y-40779711D01*
X67220609Y-40910814D01*
X67220602Y-40910827D01*
X67160264Y-41056498D01*
X67160261Y-41056510D01*
X67129500Y-41211153D01*
X51219786Y-41211153D01*
X51106379Y-41055063D01*
X50944937Y-40893621D01*
X50760228Y-40759421D01*
X50745342Y-40751836D01*
X50556803Y-40655770D01*
X50339660Y-40585215D01*
X50114162Y-40549500D01*
X50114157Y-40549500D01*
X49885843Y-40549500D01*
X49885838Y-40549500D01*
X49660339Y-40585215D01*
X49443196Y-40655770D01*
X49239771Y-40759421D01*
X49055061Y-40893622D01*
X48893622Y-41055061D01*
X48759421Y-41239771D01*
X48655770Y-41443196D01*
X48585215Y-41660339D01*
X48549500Y-41885837D01*
X46706483Y-41885837D01*
X46707078Y-41874482D01*
X46707078Y-41874481D01*
X46709840Y-41821789D01*
X46718235Y-41661592D01*
X46719592Y-41648686D01*
X46730602Y-41579172D01*
X46771586Y-41320409D01*
X46774279Y-41307733D01*
X46860310Y-40986662D01*
X46864314Y-40974340D01*
X46983434Y-40664021D01*
X46988698Y-40652199D01*
X47139611Y-40356014D01*
X47146077Y-40344816D01*
X47327113Y-40066045D01*
X47334727Y-40055564D01*
X47543915Y-39797241D01*
X47552582Y-39787615D01*
X47787615Y-39552582D01*
X47797241Y-39543915D01*
X48055564Y-39334727D01*
X48066045Y-39327113D01*
X48344816Y-39146077D01*
X48356014Y-39139611D01*
X48652199Y-38988698D01*
X48664021Y-38983434D01*
X48974340Y-38864314D01*
X48986662Y-38860310D01*
X49307733Y-38774279D01*
X49320409Y-38771586D01*
X49648688Y-38719591D01*
X49661592Y-38718235D01*
X49996756Y-38700669D01*
X50003246Y-38700500D01*
X50039882Y-38700500D01*
X119960118Y-38700500D01*
X119996754Y-38700500D01*
X120003243Y-38700669D01*
G37*
%TD.AperFunction*%
%TD*%
D22*
X120000000Y-38500000D02*
X50000000Y-38500000D01*
X123500000Y-76550000D02*
X131350000Y-76550000D01*
X50000000Y-80000000D02*
G75*
G02*
X46500000Y-76500000I0J3500000D01*
G01*
X46500000Y-42000000D02*
X46500000Y-76500000D01*
X123500000Y-42000000D02*
X131275000Y-42000000D01*
X131350000Y-76550000D02*
X131350000Y-42000000D01*
X46500000Y-42000000D02*
G75*
G02*
X50000000Y-38500000I3500000J0D01*
G01*
X120000000Y-80000000D02*
X50000000Y-80000000D01*
X120000000Y-38500000D02*
G75*
G02*
X123500000Y-42000000I0J-3500000D01*
G01*
X123499643Y-76549995D02*
G75*
G02*
X120000000Y-80000000I-3499643J49995D01*
G01*
X131275000Y-42000000D02*
X131350000Y-42000000D01*
M02*
